<svg xmlns="http://www.w3.org/2000/svg" xmlns:xlink="http://www.w3.org/1999/xlink" zoomAndPan="magnify" preserveAspectRatio="xMidYMid meet" version="1.0" viewBox="586.19 389.76 264.79 30"><defs><g/><clipPath id="ea44835fde"><path d="M 586.1875 389.757812 L 605 389.757812 L 605 411 L 586.1875 411 Z M 586.1875 389.757812 " clip-rule="nonzero"/></clipPath><clipPath id="759378d603"><path d="M 594 406 L 605 406 L 605 419.757812 L 594 419.757812 Z M 594 406 " clip-rule="nonzero"/></clipPath><clipPath id="f793222ca3"><path d="M 610 398 L 628.9375 398 L 628.9375 419.757812 L 610 419.757812 Z M 610 398 " clip-rule="nonzero"/></clipPath><clipPath id="feb2476cff"><path d="M 610 389.757812 L 621 389.757812 L 621 403 L 610 403 Z M 610 389.757812 " clip-rule="nonzero"/></clipPath></defs><g clip-path="url(#ea44835fde)"><path fill="#ff0000" d="M 586.1875 404.757812 L 604.53125 389.777344 L 604.53125 399.832031 L 596.945312 406.027344 L 594.449219 408.066406 C 593.769531 408.621094 593.378906 409.445312 593.378906 410.320312 C 593.378906 410.429688 593.386719 410.539062 593.398438 410.644531 Z M 586.1875 404.757812 " fill-opacity="1" fill-rule="nonzero"/></g><g clip-path="url(#759378d603)"><path fill="#ff914d" d="M 594.972656 411.933594 C 594.488281 411.535156 594.210938 410.949219 594.210938 410.320312 C 594.210938 409.695312 594.488281 409.105469 594.972656 408.710938 L 597.210938 406.882812 L 604.53125 412.863281 L 604.53125 419.738281 Z M 594.972656 411.933594 " fill-opacity="1" fill-rule="nonzero"/></g><g clip-path="url(#f793222ca3)"><path fill="#8c52ff" d="M 610.3125 409.683594 L 617.898438 403.488281 L 620.398438 401.449219 C 621.078125 400.890625 621.464844 400.070312 621.464844 399.195312 C 621.464844 399.085938 621.460938 398.976562 621.449219 398.871094 L 628.65625 404.757812 L 610.3125 419.738281 Z M 610.3125 409.683594 " fill-opacity="1" fill-rule="nonzero"/></g><g clip-path="url(#feb2476cff)"><path fill="#38c5ca" d="M 610.3125 396.648438 L 610.3125 389.777344 L 619.871094 397.582031 C 620.359375 397.980469 620.636719 398.566406 620.636719 399.195312 C 620.636719 399.820312 620.359375 400.410156 619.871094 400.804688 L 617.636719 402.628906 Z M 610.3125 396.648438 " fill-opacity="1" fill-rule="nonzero"/></g><path stroke-linecap="butt" transform="matrix(0.271603, 0, 0, 0.271603, 632.434006, 387.104005)" fill="none" stroke-linejoin="miter" d="M 55.715086 98.005636 L 55.715086 59.835303 L 24.534497 59.835303 L 24.534497 50.041031 L 55.715086 50.041031 L 55.715086 35.745134 L 8.929821 35.745134 L 8.929821 73.555912 L 40.124792 73.555912 L 40.124792 83.810414 L 8.929821 83.810414 L 8.929821 98.005636 Z M 117.026363 80.63195 L 117.026363 35.745134 L 70.241098 35.745134 L 70.241098 98.005636 L 85.860157 98.005636 L 85.860157 80.63195 Z M 101.436069 66.465493 L 85.860157 66.465493 L 85.860157 50.041031 L 101.436069 50.041031 Z M 146.984466 98.005636 L 146.984466 35.745134 L 131.379789 35.745134 L 131.379789 98.005636 Z M 208.396419 98.005636 L 199.234963 80.63195 L 208.396419 80.63195 L 208.396419 35.745134 L 161.611154 35.745134 L 161.611154 98.005636 L 177.230212 98.005636 L 177.230212 80.63195 L 183.917931 80.63195 L 192.806124 98.005636 Z M 192.806124 66.465493 L 177.230212 66.465493 L 177.230212 50.041031 L 192.806124 50.041031 Z M 238.642165 98.005636 L 238.642165 35.745134 L 223.023106 35.745134 L 223.023106 98.005636 Z M 299.0186 50.041031 L 299.0186 35.745134 L 252.247717 35.745134 L 252.247717 50.041031 L 267.938687 50.041031 L 267.938687 98.005636 L 283.528981 98.005636 L 283.528981 50.041031 Z M 359.193684 98.005636 L 359.193684 83.810414 L 328.228829 83.810414 L 328.228829 73.555912 L 359.193684 73.555912 L 359.193684 59.835303 L 328.228829 59.835303 L 328.228829 50.041031 L 359.193684 50.041031 L 359.193684 35.745134 L 312.624152 35.745134 L 312.624152 98.005636 Z M 419.699559 98.005636 L 419.699559 35.745134 L 372.943058 35.745134 L 372.943058 50.041031 L 376.006465 50.041031 L 376.006465 83.810414 L 372.943058 83.810414 L 372.943058 98.005636 Z M 404.109265 83.810414 L 388.518971 83.810414 L 388.518971 50.041031 L 404.109265 50.041031 Z M 404.109265 83.810414 " stroke="#478000" stroke-width="6.999998" stroke-opacity="1" stroke-miterlimit="4"/><g fill="#c1ff72" fill-opacity="1"><g transform="translate(634.203671, 413.721125)"><g><path d="M 13.359375 0 L 13.359375 -10.367188 L 4.890625 -10.367188 L 4.890625 -13.027344 L 13.359375 -13.027344 L 13.359375 -16.90625 L 0.660156 -16.90625 L 0.660156 -6.640625 L 9.125 -6.640625 L 9.125 -3.851562 L 0.660156 -3.851562 L 0.660156 0 Z M 13.359375 0 "/></g></g></g><g fill="#c1ff72" fill-opacity="1"><g transform="translate(650.857618, 413.721125)"><g><path d="M 13.359375 -4.714844 L 13.359375 -16.90625 L 0.660156 -16.90625 L 0.660156 0 L 4.890625 0 L 4.890625 -4.714844 Z M 9.125 -8.566406 L 4.890625 -8.566406 L 4.890625 -13.027344 L 9.125 -13.027344 Z M 9.125 -8.566406 "/></g></g></g><g fill="#c1ff72" fill-opacity="1"><g transform="translate(667.46087, 413.721125)"><g><path d="M 4.890625 0 L 4.890625 -16.90625 L 0.660156 -16.90625 L 0.660156 0 Z M 4.890625 0 "/></g></g></g><g fill="#c1ff72" fill-opacity="1"><g transform="translate(675.673848, 413.721125)"><g><path d="M 13.359375 0 L 10.875 -4.714844 L 13.359375 -4.714844 L 13.359375 -16.90625 L 0.660156 -16.90625 L 0.660156 0 L 4.890625 0 L 4.890625 -4.714844 L 6.71875 -4.714844 L 9.125 0 Z M 9.125 -8.566406 L 4.890625 -8.566406 L 4.890625 -13.027344 L 9.125 -13.027344 Z M 9.125 -8.566406 "/></g></g></g><g fill="#c1ff72" fill-opacity="1"><g transform="translate(692.353147, 413.721125)"><g><path d="M 4.890625 0 L 4.890625 -16.90625 L 0.660156 -16.90625 L 0.660156 0 Z M 4.890625 0 "/></g></g></g><g fill="#c1ff72" fill-opacity="1"><g transform="translate(700.566129, 413.721125)"><g><path d="M 13.078125 -13.027344 L 13.078125 -16.90625 L 0.378906 -16.90625 L 0.378906 -13.027344 L 4.640625 -13.027344 L 4.640625 0 L 8.871094 0 L 8.871094 -13.027344 Z M 13.078125 -13.027344 "/></g></g></g><g fill="#c1ff72" fill-opacity="1"><g transform="translate(716.687766, 413.721125)"><g><path d="M 13.308594 0 L 13.308594 -3.851562 L 4.890625 -3.851562 L 4.890625 -6.640625 L 13.308594 -6.640625 L 13.308594 -10.367188 L 4.890625 -10.367188 L 4.890625 -13.027344 L 13.308594 -13.027344 L 13.308594 -16.90625 L 0.660156 -16.90625 L 0.660156 0 Z M 13.308594 0 "/></g></g></g><g fill="#c1ff72" fill-opacity="1"><g transform="translate(733.316363, 413.721125)"><g><path d="M 13.105469 0 L 13.105469 -16.90625 L 0.40625 -16.90625 L 0.40625 -13.027344 L 1.242188 -13.027344 L 1.242188 -3.851562 L 0.40625 -3.851562 L 0.40625 0 Z M 8.871094 -3.851562 L 4.640625 -3.851562 L 4.640625 -13.027344 L 8.871094 -13.027344 Z M 8.871094 -3.851562 "/></g></g></g><path stroke-linecap="butt" transform="matrix(0.375022, 0, 0, 0.375022, 751.548592, 394.03248)" fill="none" stroke-linejoin="miter" d="M 14.432074 49.337577 C 12.22387 49.337577 10.234404 48.952183 8.463674 48.181395 C 6.703361 47.400191 5.318025 46.306505 4.307668 44.889921 C 3.29731 43.462922 2.79734 41.806769 2.79734 39.921463 L 8.557419 39.921463 C 8.692827 41.338046 9.255294 42.504645 10.24482 43.421258 C 11.244761 44.327454 12.640513 44.785761 14.432074 44.785761 C 16.296548 44.785761 17.74438 44.337871 18.785986 43.44209 C 19.827591 42.546309 20.348394 41.379711 20.348394 39.963127 C 20.348394 38.859025 20.025496 37.952828 19.379701 37.265368 C 18.723489 36.567493 17.921453 36.036274 16.963176 35.661296 C 15.994483 35.275902 14.661227 34.869676 12.96341 34.421785 C 10.817703 33.859318 9.078221 33.286435 7.744966 32.703136 C 6.401295 32.109421 5.255529 31.21364 4.307668 29.984545 C 3.359807 28.755451 2.891084 27.109714 2.891084 25.047335 C 2.891084 23.162028 3.359807 21.516292 4.307668 20.099708 C 5.255529 18.672708 6.578368 17.579022 8.286601 16.829066 C 9.984418 16.058278 11.953053 15.6833 14.202921 15.6833 C 17.379818 15.6833 19.983832 16.47492 22.025379 18.068577 C 24.05651 19.67265 25.19186 21.860021 25.400181 24.630692 L 19.442197 24.630692 C 19.348453 23.432846 18.785986 22.412072 17.74438 21.557956 C 16.702774 20.703839 15.338271 20.276781 13.630038 20.276781 C 12.088462 20.276781 10.817703 20.672591 9.838594 21.474627 C 8.8699 22.255832 8.380346 23.391182 8.380346 24.870262 C 8.380346 25.870203 8.682411 26.703488 9.296959 27.349283 C 9.921922 27.995078 10.69271 28.505465 11.630155 28.890859 C 12.578016 29.265837 13.880023 29.672064 15.515344 30.119954 C 17.6923 30.724085 19.473445 31.328216 20.837949 31.921932 C 22.212868 32.515647 23.379466 33.442676 24.337744 34.682187 C 25.306437 35.932113 25.785575 37.598682 25.785575 39.681893 C 25.785575 41.348462 25.337685 42.931703 24.431488 44.410783 C 23.546123 45.889863 22.2337 47.077293 20.504635 47.98349 C 18.785986 48.879271 16.765271 49.337577 14.432074 49.337577 Z M 72.636996 16.110358 L 61.752217 37.077879 L 61.752217 49.004264 L 56.3567 49.004264 L 56.3567 37.077879 L 45.419841 16.110358 L 51.440322 16.110358 L 59.054459 32.244829 L 66.679012 16.110358 Z M 119.998803 49.004264 L 114.603286 49.004264 L 98.364654 24.443203 L 98.364654 49.004264 L 92.969137 49.004264 L 92.969137 16.058278 L 98.364654 16.058278 L 114.603286 40.577674 L 114.603286 16.058278 L 119.998803 16.058278 Z M 164.423282 16.110358 L 164.423282 20.505934 L 155.673795 20.505934 L 155.673795 49.004264 L 150.278278 49.004264 L 150.278278 20.505934 L 141.47671 20.505934 L 141.47671 16.110358 Z M 205.775025 42.275491 L 192.004999 42.275491 L 189.65097 49.004264 L 184.005467 49.004264 L 195.796443 16.058278 L 202.046077 16.058278 L 213.826636 49.004264 L 208.139469 49.004264 Z M 204.264697 37.879916 L 198.92126 22.589145 L 193.525743 37.879916 Z M 250.116175 32.588559 L 260.344743 49.004264 L 254.272182 49.004264 L 246.845534 37.077879 L 239.887608 49.004264 L 233.88796 49.004264 L 244.106111 32.588559 L 233.83588 16.110358 L 239.887608 16.110358 L 247.366337 28.140903 L 254.365926 16.110358 L 260.386407 16.110358 Z M 250.116175 32.588559 " stroke="#800000" stroke-width="3.549225" stroke-opacity="1" stroke-miterlimit="4"/><g fill="#ff3131" fill-opacity="1"><g transform="translate(751.566172, 412.408557)"><g><path d="M 5.390625 0.125 C 4.566406 0.125 3.820312 -0.0195312 3.15625 -0.3125 C 2.5 -0.601562 1.976562 -1.015625 1.59375 -1.546875 C 1.21875 -2.078125 1.03125 -2.695312 1.03125 -3.40625 L 3.1875 -3.40625 C 3.238281 -2.875 3.453125 -2.4375 3.828125 -2.09375 C 4.203125 -1.75 4.722656 -1.578125 5.390625 -1.578125 C 6.085938 -1.578125 6.628906 -1.742188 7.015625 -2.078125 C 7.410156 -2.421875 7.609375 -2.859375 7.609375 -3.390625 C 7.609375 -3.804688 7.488281 -4.144531 7.25 -4.40625 C 7.007812 -4.664062 6.707031 -4.863281 6.34375 -5 C 5.976562 -5.144531 5.476562 -5.300781 4.84375 -5.46875 C 4.039062 -5.675781 3.382812 -5.890625 2.875 -6.109375 C 2.375 -6.328125 1.945312 -6.664062 1.59375 -7.125 C 1.238281 -7.59375 1.0625 -8.210938 1.0625 -8.984375 C 1.0625 -9.691406 1.238281 -10.3125 1.59375 -10.84375 C 1.945312 -11.375 2.441406 -11.78125 3.078125 -12.0625 C 3.722656 -12.351562 4.46875 -12.5 5.3125 -12.5 C 6.5 -12.5 7.472656 -12.195312 8.234375 -11.59375 C 9.003906 -11 9.429688 -10.179688 9.515625 -9.140625 L 7.28125 -9.140625 C 7.238281 -9.585938 7.019531 -9.972656 6.625 -10.296875 C 6.238281 -10.617188 5.726562 -10.78125 5.09375 -10.78125 C 4.507812 -10.78125 4.035156 -10.628906 3.671875 -10.328125 C 3.304688 -10.035156 3.125 -9.609375 3.125 -9.046875 C 3.125 -8.671875 3.238281 -8.359375 3.46875 -8.109375 C 3.695312 -7.867188 3.988281 -7.675781 4.34375 -7.53125 C 4.695312 -7.394531 5.179688 -7.242188 5.796875 -7.078125 C 6.617188 -6.859375 7.285156 -6.632812 7.796875 -6.40625 C 8.316406 -6.1875 8.753906 -5.84375 9.109375 -5.375 C 9.472656 -4.90625 9.65625 -4.28125 9.65625 -3.5 C 9.65625 -2.875 9.484375 -2.28125 9.140625 -1.71875 C 8.804688 -1.164062 8.316406 -0.71875 7.671875 -0.375 C 7.023438 -0.0390625 6.265625 0.125 5.390625 0.125 Z M 5.390625 0.125 "/></g></g></g><g fill="#ff3131" fill-opacity="1"><g transform="translate(768.317118, 412.408557)"><g><path d="M 10.46875 -12.34375 L 6.390625 -4.46875 L 6.390625 0 L 4.359375 0 L 4.359375 -4.46875 L 0.265625 -12.34375 L 2.515625 -12.34375 L 5.375 -6.28125 L 8.234375 -12.34375 Z M 10.46875 -12.34375 "/></g></g></g><g fill="#ff3131" fill-opacity="1"><g transform="translate(785.085804, 412.408557)"><g><path d="M 11.46875 0 L 9.4375 0 L 3.359375 -9.21875 L 3.359375 0 L 1.328125 0 L 1.328125 -12.359375 L 3.359375 -12.359375 L 9.4375 -3.15625 L 9.4375 -12.359375 L 11.46875 -12.359375 Z M 11.46875 0 "/></g></g></g><g fill="#ff3131" fill-opacity="1"><g transform="translate(803.912708, 412.408557)"><g><path d="M 9.296875 -12.34375 L 9.296875 -10.6875 L 6.015625 -10.6875 L 6.015625 0 L 4 0 L 4 -10.6875 L 0.6875 -10.6875 L 0.6875 -12.34375 Z M 9.296875 -12.34375 "/></g></g></g><g fill="#ff3131" fill-opacity="1"><g transform="translate(819.953927, 412.408557)"><g><path d="M 8.765625 -2.515625 L 3.609375 -2.515625 L 2.71875 0 L 0.609375 0 L 5.015625 -12.359375 L 7.359375 -12.359375 L 11.78125 0 L 9.65625 0 Z M 8.203125 -4.171875 L 6.1875 -9.90625 L 4.171875 -4.171875 Z M 8.203125 -4.171875 "/></g></g></g><g fill="#ff3131" fill-opacity="1"><g transform="translate(838.354988, 412.408557)"><g><path d="M 7 -6.15625 L 10.828125 0 L 8.5625 0 L 5.765625 -4.46875 L 3.15625 0 L 0.90625 0 L 4.734375 -6.15625 L 0.890625 -12.34375 L 3.15625 -12.34375 L 5.96875 -7.828125 L 8.59375 -12.34375 L 10.84375 -12.34375 Z M 7 -6.15625 "/></g></g></g></svg>
