<svg xmlns="http://www.w3.org/2000/svg" xmlns:xlink="http://www.w3.org/1999/xlink" zoomAndPan="magnify" preserveAspectRatio="xMidYMid meet" version="1.0" viewBox="698.8 390.2 42.75 30"><defs><clipPath id="503127adc0"><path d="M 698.804688 390.203125 L 718 390.203125 L 718 412 L 698.804688 412 Z M 698.804688 390.203125 " clip-rule="nonzero"/></clipPath><clipPath id="8c6f1d4d06"><path d="M 706 407 L 718 407 L 718 420.203125 L 706 420.203125 Z M 706 407 " clip-rule="nonzero"/></clipPath><clipPath id="f98ba608e7"><path d="M 722 399 L 741.554688 399 L 741.554688 420.203125 L 722 420.203125 Z M 722 399 " clip-rule="nonzero"/></clipPath><clipPath id="0e70d20d86"><path d="M 722 390.203125 L 734 390.203125 L 734 404 L 722 404 Z M 722 390.203125 " clip-rule="nonzero"/></clipPath></defs><g clip-path="url(#503127adc0)"><path fill="#ff0000" d="M 698.804688 405.203125 L 717.148438 390.222656 L 717.148438 400.28125 L 709.5625 406.472656 L 707.066406 408.515625 C 706.386719 409.070312 705.996094 409.890625 705.996094 410.769531 C 705.996094 410.875 706 410.984375 706.015625 411.09375 Z M 698.804688 405.203125 " fill-opacity="1" fill-rule="nonzero"/></g><g clip-path="url(#8c6f1d4d06)"><path fill="#ff914d" d="M 707.589844 412.378906 C 707.105469 411.980469 706.824219 411.394531 706.824219 410.769531 C 706.824219 410.140625 707.105469 409.554688 707.589844 409.15625 L 709.824219 407.332031 L 717.148438 413.3125 L 717.148438 420.183594 Z M 707.589844 412.378906 " fill-opacity="1" fill-rule="nonzero"/></g><g clip-path="url(#f98ba608e7)"><path fill="#8c52ff" d="M 722.929688 410.128906 L 730.515625 403.933594 L 733.011719 401.894531 C 733.691406 401.339844 734.082031 400.519531 734.082031 399.640625 C 734.082031 399.53125 734.074219 399.421875 734.0625 399.316406 L 741.273438 405.203125 L 722.929688 420.183594 Z M 722.929688 410.128906 " fill-opacity="1" fill-rule="nonzero"/></g><g clip-path="url(#0e70d20d86)"><path fill="#38c5ca" d="M 722.929688 397.097656 L 722.929688 390.222656 L 732.488281 398.027344 C 732.972656 398.425781 733.253906 399.011719 733.253906 399.640625 C 733.253906 400.269531 732.972656 400.855469 732.488281 401.25 L 730.253906 403.078125 Z M 722.929688 397.097656 " fill-opacity="1" fill-rule="nonzero"/></g></svg>