<svg xmlns="http://www.w3.org/2000/svg" xmlns:xlink="http://www.w3.org/1999/xlink" zoomAndPan="magnify" preserveAspectRatio="xMidYMid meet" version="1.0" viewBox="682.25 396.79 75.53 17.39"><defs><g/></defs><path stroke-linecap="butt" transform="matrix(0.166847, 0, 0, 0.166847, 683.33546, 394.324687)" fill="none" stroke-linejoin="miter" d="M 61.248996 98.000369 L 61.248996 59.838596 L 30.064038 59.838596 L 30.064038 50.028914 L 61.248996 50.028914 L 61.248996 35.747514 L 14.471559 35.747514 L 14.471559 73.558105 L 45.656517 73.558105 L 45.656517 83.812618 L 14.471559 83.812618 L 14.471559 98.000369 Z M 122.565365 80.628568 L 122.565365 35.747514 L 75.787928 35.747514 L 75.787928 98.000369 L 91.380407 98.000369 L 91.380407 80.628568 Z M 106.972886 66.464229 L 91.380407 66.464229 L 91.380407 50.028914 L 106.972886 50.028914 Z M 152.509479 98.000369 L 152.509479 35.747514 L 136.917001 35.747514 L 136.917001 98.000369 Z M 213.919497 98.000369 L 204.765354 80.628568 L 213.919497 80.628568 L 213.919497 35.747514 L 167.142061 35.747514 L 167.142061 98.000369 L 182.757952 98.000369 L 182.757952 80.628568 L 189.453821 80.628568 L 198.35043 98.000369 Z M 198.35043 66.464229 L 182.757952 66.464229 L 182.757952 50.028914 L 198.35043 50.028914 Z M 244.167969 98.000369 L 244.167969 35.747514 L 228.552078 35.747514 L 228.552078 98.000369 Z M 304.547853 50.028914 L 304.547853 35.747514 L 257.770417 35.747514 L 257.770417 50.028914 L 273.479956 50.028914 L 273.479956 98.000369 L 289.049023 98.000369 L 289.049023 50.028914 Z M 364.74044 98.000369 L 364.74044 83.812618 L 333.766192 83.812618 L 333.766192 73.558105 L 364.74044 73.558105 L 364.74044 59.838596 L 333.766192 59.838596 L 333.766192 50.028914 L 364.74044 50.028914 L 364.74044 35.747514 L 318.150301 35.747514 L 318.150301 98.000369 Z M 425.213973 98.000369 L 425.213973 35.747514 L 378.459948 35.747514 L 378.459948 50.028914 L 381.55035 50.028914 L 381.55035 83.812618 L 378.459948 83.812618 L 378.459948 98.000369 Z M 409.644906 83.812618 L 394.052427 83.812618 L 394.052427 50.028914 L 409.644906 50.028914 Z M 409.644906 83.812618 " stroke="#478000" stroke-width="6.999998" stroke-opacity="1" stroke-miterlimit="4"/><g fill="#c1ff72" fill-opacity="1"><g transform="translate(685.345448, 410.67572)"><g><path d="M 8.207031 0 L 8.207031 -6.367188 L 3.003906 -6.367188 L 3.003906 -8.003906 L 8.207031 -8.003906 L 8.207031 -10.386719 L 0.40625 -10.386719 L 0.40625 -4.078125 L 5.605469 -4.078125 L 5.605469 -2.367188 L 0.40625 -2.367188 L 0.40625 0 Z M 8.207031 0 "/></g></g></g><g fill="#c1ff72" fill-opacity="1"><g transform="translate(695.576052, 410.67572)"><g><path d="M 8.207031 -2.894531 L 8.207031 -10.386719 L 0.40625 -10.386719 L 0.40625 0 L 3.003906 0 L 3.003906 -2.894531 Z M 5.605469 -5.261719 L 3.003906 -5.261719 L 3.003906 -8.003906 L 5.605469 -8.003906 Z M 5.605469 -5.261719 "/></g></g></g><g fill="#c1ff72" fill-opacity="1"><g transform="translate(705.775514, 410.67572)"><g><path d="M 3.003906 0 L 3.003906 -10.386719 L 0.40625 -10.386719 L 0.40625 0 Z M 3.003906 0 "/></g></g></g><g fill="#c1ff72" fill-opacity="1"><g transform="translate(710.820788, 410.67572)"><g><path d="M 8.207031 0 L 6.679688 -2.894531 L 8.207031 -2.894531 L 8.207031 -10.386719 L 0.40625 -10.386719 L 0.40625 0 L 3.003906 0 L 3.003906 -2.894531 L 4.125 -2.894531 L 5.605469 0 Z M 5.605469 -5.261719 L 3.003906 -5.261719 L 3.003906 -8.003906 L 5.605469 -8.003906 Z M 5.605469 -5.261719 "/></g></g></g><g fill="#c1ff72" fill-opacity="1"><g transform="translate(721.066966, 410.67572)"><g><path d="M 3.003906 0 L 3.003906 -10.386719 L 0.40625 -10.386719 L 0.40625 0 Z M 3.003906 0 "/></g></g></g><g fill="#c1ff72" fill-opacity="1"><g transform="translate(726.112242, 410.67572)"><g><path d="M 8.035156 -8.003906 L 8.035156 -10.386719 L 0.234375 -10.386719 L 0.234375 -8.003906 L 2.851562 -8.003906 L 2.851562 0 L 5.449219 0 L 5.449219 -8.003906 Z M 8.035156 -8.003906 "/></g></g></g><g fill="#c1ff72" fill-opacity="1"><g transform="translate(736.015845, 410.67572)"><g><path d="M 8.175781 0 L 8.175781 -2.367188 L 3.003906 -2.367188 L 3.003906 -4.078125 L 8.175781 -4.078125 L 8.175781 -6.367188 L 3.003906 -6.367188 L 3.003906 -8.003906 L 8.175781 -8.003906 L 8.175781 -10.386719 L 0.40625 -10.386719 L 0.40625 0 Z M 8.175781 0 "/></g></g></g><g fill="#c1ff72" fill-opacity="1"><g transform="translate(746.230877, 410.67572)"><g><path d="M 8.050781 0 L 8.050781 -10.386719 L 0.25 -10.386719 L 0.25 -8.003906 L 0.761719 -8.003906 L 0.761719 -2.367188 L 0.25 -2.367188 L 0.25 0 Z M 5.449219 -2.367188 L 2.851562 -2.367188 L 2.851562 -8.003906 L 5.449219 -8.003906 Z M 5.449219 -2.367188 "/></g></g></g></svg>