<svg xmlns="http://www.w3.org/2000/svg" xmlns:xlink="http://www.w3.org/1999/xlink" zoomAndPan="magnify" preserveAspectRatio="xMidYMid meet" version="1.0" viewBox="678.54 398.33 83.03 12.15"><defs><g/></defs><path stroke-linecap="butt" transform="matrix(0.75, 0, 0, 0.75, 678.45326, 394.62)" fill="none" stroke-linejoin="miter" d="M 6.020654 20.142084 C 5.088362 20.142084 4.24982 19.980626 3.505028 19.652501 C 2.765445 19.324376 2.176903 18.860834 1.74982 18.261876 C 1.327945 17.662917 1.114403 16.965001 1.114403 16.168126 L 3.546695 16.168126 C 3.603987 16.767084 3.838362 17.256667 4.260237 17.647292 C 4.676903 18.027501 5.265445 18.220209 6.020654 18.220209 C 6.807112 18.220209 7.421695 18.032709 7.859195 17.652501 C 8.301904 17.272292 8.520654 16.787917 8.520654 16.188959 C 8.520654 15.720209 8.385237 15.340001 8.109195 15.048334 C 7.838362 14.751459 7.494612 14.527501 7.088362 14.371251 C 6.682112 14.209792 6.12482 14.037917 5.40607 13.845209 C 4.49982 13.610834 3.765445 13.366042 3.197737 13.12125 C 2.635237 12.87125 2.150862 12.491042 1.74982 11.975417 C 1.353987 11.454584 1.150862 10.761875 1.150862 9.892084 C 1.150862 9.095209 1.353987 8.397292 1.74982 7.803542 C 2.150862 7.199375 2.713362 6.741042 3.426903 6.423333 C 4.145653 6.100417 4.978987 5.938958 5.926904 5.938958 C 7.265445 5.938958 8.369612 6.2775 9.223779 6.949375 C 10.088362 7.62125 10.56232 8.543125 10.65607 9.715 L 8.140445 9.715 C 8.098779 9.209792 7.859195 8.7775 7.421695 8.418125 C 6.984195 8.05875 6.40607 7.881667 5.68732 7.881667 C 5.03107 7.881667 4.49982 8.048334 4.088362 8.381667 C 3.676903 8.715 3.46857 9.188959 3.46857 9.813959 C 3.46857 10.241042 3.598778 10.59 3.859195 10.860834 C 4.119612 11.136875 4.447737 11.350417 4.84357 11.511875 C 5.244612 11.673334 5.791487 11.845209 6.478987 12.032709 C 7.400862 12.287917 8.150862 12.537917 8.728987 12.793125 C 9.307112 13.043125 9.801904 13.43375 10.208154 13.959792 C 10.614404 14.485834 10.817529 15.188959 10.817529 16.063959 C 10.817529 16.772292 10.62482 17.438959 10.244612 18.063959 C 9.869612 18.688959 9.317529 19.188959 8.588362 19.569167 C 7.864404 19.949376 7.010237 20.142084 6.020654 20.142084 Z M 30.588363 6.12125 L 25.994613 14.970209 L 25.994613 20.001459 L 23.718571 20.001459 L 23.718571 14.970209 L 19.103988 6.12125 L 21.640446 6.12125 L 24.853988 12.928542 L 28.072738 6.12125 Z M 50.577947 20.001459 L 48.301906 20.001459 L 41.447739 9.636875 L 41.447739 20.001459 L 39.171697 20.001459 L 39.171697 6.100417 L 41.447739 6.100417 L 48.301906 16.444167 L 48.301906 6.100417 L 50.577947 6.100417 Z M 69.327948 6.12125 L 69.327948 7.975417 L 65.63524 7.975417 L 65.63524 20.001459 L 63.359198 20.001459 L 63.359198 7.975417 L 59.645656 7.975417 L 59.645656 6.12125 Z M 86.781074 17.162917 L 80.968574 17.162917 L 79.973782 20.001459 L 77.593574 20.001459 L 82.567532 6.100417 L 85.202949 6.100417 L 90.176908 20.001459 L 87.781074 20.001459 Z M 86.140449 15.303542 L 83.890449 8.855625 L 81.614407 15.303542 Z M 105.494617 13.074375 L 109.807117 20.001459 L 107.249825 20.001459 L 104.114408 14.970209 L 101.182117 20.001459 L 98.645658 20.001459 L 102.958158 13.074375 L 98.624825 6.12125 L 101.182117 6.12125 L 104.333158 11.194167 L 107.291492 6.12125 L 109.82795 6.12125 Z M 105.494617 13.074375 " stroke="#800000" stroke-width="1.4979" stroke-opacity="1" stroke-miterlimit="4"/><g fill="#ff3131" fill-opacity="1"><g transform="translate(678.418104, 409.619999)"><g><path d="M 4.5625 0.109375 C 3.851562 0.109375 3.21875 -0.0078125 2.65625 -0.25 C 2.101562 -0.5 1.664062 -0.847656 1.34375 -1.296875 C 1.03125 -1.753906 0.875 -2.28125 0.875 -2.875 L 2.703125 -2.875 C 2.734375 -2.425781 2.90625 -2.054688 3.21875 -1.765625 C 3.539062 -1.472656 3.988281 -1.328125 4.5625 -1.328125 C 5.144531 -1.328125 5.597656 -1.46875 5.921875 -1.75 C 6.253906 -2.039062 6.421875 -2.410156 6.421875 -2.859375 C 6.421875 -3.210938 6.316406 -3.5 6.109375 -3.71875 C 5.910156 -3.9375 5.660156 -4.101562 5.359375 -4.21875 C 5.054688 -4.34375 4.632812 -4.472656 4.09375 -4.609375 C 3.414062 -4.796875 2.863281 -4.976562 2.4375 -5.15625 C 2.007812 -5.34375 1.644531 -5.628906 1.34375 -6.015625 C 1.050781 -6.410156 0.90625 -6.929688 0.90625 -7.578125 C 0.90625 -8.179688 1.050781 -8.707031 1.34375 -9.15625 C 1.644531 -9.601562 2.066406 -9.945312 2.609375 -10.1875 C 3.148438 -10.425781 3.773438 -10.546875 4.484375 -10.546875 C 5.492188 -10.546875 6.316406 -10.289062 6.953125 -9.78125 C 7.597656 -9.28125 7.957031 -8.59375 8.03125 -7.71875 L 6.140625 -7.71875 C 6.109375 -8.09375 5.925781 -8.414062 5.59375 -8.6875 C 5.269531 -8.957031 4.835938 -9.09375 4.296875 -9.09375 C 3.804688 -9.09375 3.40625 -8.96875 3.09375 -8.71875 C 2.789062 -8.46875 2.640625 -8.109375 2.640625 -7.640625 C 2.640625 -7.316406 2.734375 -7.050781 2.921875 -6.84375 C 3.117188 -6.644531 3.367188 -6.484375 3.671875 -6.359375 C 3.972656 -6.242188 4.382812 -6.117188 4.90625 -5.984375 C 5.59375 -5.785156 6.148438 -5.59375 6.578125 -5.40625 C 7.015625 -5.21875 7.382812 -4.925781 7.6875 -4.53125 C 8 -4.132812 8.15625 -3.609375 8.15625 -2.953125 C 8.15625 -2.421875 8.007812 -1.921875 7.71875 -1.453125 C 7.4375 -0.984375 7.023438 -0.601562 6.484375 -0.3125 C 5.941406 -0.03125 5.300781 0.109375 4.5625 0.109375 Z M 4.5625 0.109375 "/></g></g></g><g fill="#ff3131" fill-opacity="1"><g transform="translate(692.556808, 409.619999)"><g><path d="M 8.84375 -10.421875 L 5.390625 -3.78125 L 5.390625 0 L 3.6875 0 L 3.6875 -3.78125 L 0.21875 -10.421875 L 2.125 -10.421875 L 4.546875 -5.296875 L 6.953125 -10.421875 Z M 8.84375 -10.421875 "/></g></g></g><g fill="#ff3131" fill-opacity="1"><g transform="translate(706.710481, 409.619999)"><g><path d="M 9.6875 0 L 7.96875 0 L 2.828125 -7.78125 L 2.828125 0 L 1.125 0 L 1.125 -10.421875 L 2.828125 -10.421875 L 7.96875 -2.671875 L 7.96875 -10.421875 L 9.6875 -10.421875 Z M 9.6875 0 "/></g></g></g><g fill="#ff3131" fill-opacity="1"><g transform="translate(722.601434, 409.619999)"><g><path d="M 7.859375 -10.421875 L 7.859375 -9.015625 L 5.078125 -9.015625 L 5.078125 0 L 3.375 0 L 3.375 -9.015625 L 0.578125 -9.015625 L 0.578125 -10.421875 Z M 7.859375 -10.421875 "/></g></g></g><g fill="#ff3131" fill-opacity="1"><g transform="translate(736.141075, 409.619999)"><g><path d="M 7.40625 -2.125 L 3.046875 -2.125 L 2.296875 0 L 0.515625 0 L 4.234375 -10.421875 L 6.21875 -10.421875 L 9.953125 0 L 8.15625 0 Z M 6.921875 -3.515625 L 5.234375 -8.359375 L 3.515625 -3.515625 Z M 6.921875 -3.515625 "/></g></g></g><g fill="#ff3131" fill-opacity="1"><g transform="translate(751.672595, 409.619999)"><g><path d="M 5.90625 -5.203125 L 9.140625 0 L 7.21875 0 L 4.875 -3.78125 L 2.671875 0 L 0.765625 0 L 4 -5.203125 L 0.75 -10.421875 L 2.671875 -10.421875 L 5.03125 -6.609375 L 7.25 -10.421875 L 9.15625 -10.421875 Z M 5.90625 -5.203125 "/></g></g></g></svg>