<svg xmlns="http://www.w3.org/2000/svg" xmlns:xlink="http://www.w3.org/1999/xlink" zoomAndPan="magnify" preserveAspectRatio="xMidYMid meet" version="1.0" viewBox="693.55 386.46 53.25 37.5"><defs><clipPath id="8370998501"><path d="M 693.554688 386.457031 L 717 386.457031 L 717 413 L 693.554688 413 Z M 693.554688 386.457031 " clip-rule="nonzero"/></clipPath><clipPath id="3d7098f137"><path d="M 703 407 L 717 407 L 717 423.953125 L 703 423.953125 Z M 703 407 " clip-rule="nonzero"/></clipPath><clipPath id="6bcb1b7ab1"><path d="M 723 397 L 746.804688 397 L 746.804688 423.953125 L 723 423.953125 Z M 723 397 " clip-rule="nonzero"/></clipPath><clipPath id="afdd1cadf5"><path d="M 723 386.457031 L 737 386.457031 L 737 403 L 723 403 Z M 723 386.457031 " clip-rule="nonzero"/></clipPath></defs><g clip-path="url(#8370998501)"><path fill="#ff0000" d="M 693.554688 405.203125 L 716.484375 386.476562 L 716.484375 399.046875 L 707.003906 406.792969 L 703.878906 409.339844 C 703.03125 410.035156 702.542969 411.0625 702.542969 412.160156 C 702.542969 412.292969 702.550781 412.429688 702.566406 412.5625 Z M 693.554688 405.203125 " fill-opacity="1" fill-rule="nonzero"/></g><g clip-path="url(#3d7098f137)"><path fill="#ff914d" d="M 704.535156 414.171875 C 703.929688 413.675781 703.582031 412.941406 703.582031 412.160156 C 703.582031 411.375 703.929688 410.640625 704.535156 410.144531 L 707.332031 407.863281 L 716.484375 415.339844 L 716.484375 423.929688 Z M 704.535156 414.171875 " fill-opacity="1" fill-rule="nonzero"/></g><g clip-path="url(#6bcb1b7ab1)"><path fill="#8c52ff" d="M 723.710938 411.359375 L 733.191406 403.617188 L 736.316406 401.066406 C 737.164062 400.371094 737.652344 399.347656 737.652344 398.25 C 737.652344 398.113281 737.644531 397.976562 737.628906 397.84375 L 746.640625 405.203125 L 723.710938 423.929688 Z M 723.710938 411.359375 " fill-opacity="1" fill-rule="nonzero"/></g><g clip-path="url(#afdd1cadf5)"><path fill="#38c5ca" d="M 723.710938 395.070312 L 723.710938 386.476562 L 735.660156 396.234375 C 736.265625 396.730469 736.613281 397.464844 736.613281 398.25 C 736.613281 399.035156 736.265625 399.769531 735.660156 400.261719 L 732.863281 402.546875 Z M 723.710938 395.070312 " fill-opacity="1" fill-rule="nonzero"/></g></svg>