<svg xmlns="http://www.w3.org/2000/svg" xmlns:xlink="http://www.w3.org/1999/xlink" zoomAndPan="magnify" preserveAspectRatio="xMidYMid meet" version="1.0" viewBox="534.87 386.56 365.7 37.5"><defs><g/><clipPath id="36c97b6455"><path d="M 534.867188 386.5625 L 558 386.5625 L 558 413 L 534.867188 413 Z M 534.867188 386.5625 " clip-rule="nonzero"/></clipPath><clipPath id="c2658ce96d"><path d="M 544 407 L 558 407 L 558 424.0625 L 544 424.0625 Z M 544 407 " clip-rule="nonzero"/></clipPath><clipPath id="08803c4ff8"><path d="M 565 397 L 588 397 L 588 424.0625 L 565 424.0625 Z M 565 397 " clip-rule="nonzero"/></clipPath><clipPath id="232de8a947"><path d="M 565 386.5625 L 578 386.5625 L 578 403 L 565 403 Z M 565 386.5625 " clip-rule="nonzero"/></clipPath></defs><g clip-path="url(#36c97b6455)"><path fill="#ff0000" d="M 534.867188 405.3125 L 557.796875 386.585938 L 557.796875 399.15625 L 548.316406 406.898438 L 545.191406 409.449219 C 544.34375 410.140625 543.855469 411.167969 543.855469 412.265625 C 543.855469 412.402344 543.863281 412.535156 543.878906 412.671875 Z M 534.867188 405.3125 " fill-opacity="1" fill-rule="nonzero"/></g><g clip-path="url(#c2658ce96d)"><path fill="#ff914d" d="M 545.847656 414.28125 C 545.242188 413.785156 544.894531 413.050781 544.894531 412.265625 C 544.894531 411.480469 545.242188 410.746094 545.847656 410.25 L 548.644531 407.96875 L 557.796875 415.445312 L 557.796875 424.039062 Z M 545.847656 414.28125 " fill-opacity="1" fill-rule="nonzero"/></g><g clip-path="url(#08803c4ff8)"><path fill="#8c52ff" d="M 565.023438 411.46875 L 574.503906 403.722656 L 577.628906 401.171875 C 578.476562 400.480469 578.964844 399.453125 578.964844 398.355469 C 578.964844 398.21875 578.957031 398.085938 578.941406 397.949219 L 587.953125 405.3125 L 565.023438 424.039062 Z M 565.023438 411.46875 " fill-opacity="1" fill-rule="nonzero"/></g><g clip-path="url(#232de8a947)"><path fill="#38c5ca" d="M 565.023438 395.175781 L 565.023438 386.585938 L 576.972656 396.34375 C 577.578125 396.839844 577.929688 397.570312 577.929688 398.355469 C 577.929688 399.140625 577.578125 399.875 576.972656 400.371094 L 574.179688 402.652344 Z M 565.023438 395.175781 " fill-opacity="1" fill-rule="nonzero"/></g><path stroke-linecap="butt" transform="matrix(0.401501, 0, 0, 0.401501, 589.931353, 379.214298)" fill="none" stroke-linejoin="miter" d="M 50.820808 98.002847 L 50.820808 59.835485 L 19.648688 59.835485 L 19.648688 50.038255 L 50.820808 50.038255 L 50.820808 35.746169 L 4.043169 35.746169 L 4.043169 73.553553 L 35.234748 73.553553 L 35.234748 83.808052 L 4.043169 83.808052 L 4.043169 98.002847 Z M 112.13376 80.636357 L 112.13376 35.746169 L 65.356122 35.746169 L 65.356122 98.002847 L 80.96164 98.002847 L 80.96164 80.636357 Z M 96.5477 66.46102 L 80.96164 66.46102 L 80.96164 50.038255 L 96.5477 50.038255 Z M 142.099468 98.002847 L 142.099468 35.746169 L 126.484221 35.746169 L 126.484221 98.002847 Z M 203.509712 98.002847 L 194.344875 80.636357 L 203.509712 80.636357 L 203.509712 35.746169 L 156.722345 35.746169 L 156.722345 98.002847 L 172.337592 98.002847 L 172.337592 80.636357 L 179.031231 80.636357 L 187.923652 98.002847 Z M 187.923652 66.46102 L 172.337592 66.46102 L 172.337592 50.038255 L 187.923652 50.038255 Z M 233.747836 98.002847 L 233.747836 35.746169 L 218.132589 35.746169 L 218.132589 98.002847 Z M 294.126792 50.038255 L 294.126792 35.746169 L 247.349154 35.746169 L 247.349154 50.038255 L 263.051964 50.038255 L 263.051964 98.002847 L 278.638024 98.002847 L 278.638024 50.038255 Z M 354.311166 98.002847 L 354.311166 83.808052 L 323.343358 83.808052 L 323.343358 73.553553 L 354.311166 73.553553 L 354.311166 59.835485 L 323.343358 59.835485 L 323.343358 50.038255 L 354.311166 50.038255 L 354.311166 35.746169 L 307.73784 35.746169 L 307.73784 98.002847 Z M 414.806872 98.002847 L 414.806872 35.746169 L 368.048692 35.746169 L 368.048692 50.038255 L 371.123096 50.038255 L 371.123096 83.808052 L 368.048692 83.808052 L 368.048692 98.002847 Z M 399.220812 83.808052 L 383.634752 83.808052 L 383.634752 50.038255 L 399.220812 50.038255 Z M 399.220812 83.808052 " stroke="#478000" stroke-width="6.999998" stroke-opacity="1" stroke-miterlimit="4"/><g fill="#c1ff72" fill-opacity="1"><g transform="translate(590.583791, 418.561357)"><g><path d="M 19.746094 0 L 19.746094 -15.324219 L 7.230469 -15.324219 L 7.230469 -19.261719 L 19.746094 -19.261719 L 19.746094 -24.992188 L 0.972656 -24.992188 L 0.972656 -9.816406 L 13.488281 -9.816406 L 13.488281 -5.695312 L 0.972656 -5.695312 L 0.972656 0 Z M 19.746094 0 "/></g></g></g><g fill="#c1ff72" fill-opacity="1"><g transform="translate(615.202675, 418.561357)"><g><path d="M 19.746094 -6.96875 L 19.746094 -24.992188 L 0.972656 -24.992188 L 0.972656 0 L 7.230469 0 L 7.230469 -6.96875 Z M 13.488281 -12.664062 L 7.230469 -12.664062 L 7.230469 -19.261719 L 13.488281 -19.261719 Z M 13.488281 -12.664062 "/></g></g></g><g fill="#c1ff72" fill-opacity="1"><g transform="translate(639.74662, 418.561357)"><g><path d="M 7.230469 0 L 7.230469 -24.992188 L 0.972656 -24.992188 L 0.972656 0 Z M 7.230469 0 "/></g></g></g><g fill="#c1ff72" fill-opacity="1"><g transform="translate(651.887547, 418.561357)"><g><path d="M 19.746094 0 L 16.074219 -6.96875 L 19.746094 -6.96875 L 19.746094 -24.992188 L 0.972656 -24.992188 L 0.972656 0 L 7.230469 0 L 7.230469 -6.96875 L 9.929688 -6.96875 L 13.488281 0 Z M 13.488281 -12.664062 L 7.230469 -12.664062 L 7.230469 -19.261719 L 13.488281 -19.261719 Z M 13.488281 -12.664062 "/></g></g></g><g fill="#c1ff72" fill-opacity="1"><g transform="translate(676.543909, 418.561357)"><g><path d="M 7.230469 0 L 7.230469 -24.992188 L 0.972656 -24.992188 L 0.972656 0 Z M 7.230469 0 "/></g></g></g><g fill="#c1ff72" fill-opacity="1"><g transform="translate(688.684842, 418.561357)"><g><path d="M 19.335938 -19.261719 L 19.335938 -24.992188 L 0.5625 -24.992188 L 0.5625 -19.261719 L 6.855469 -19.261719 L 6.855469 0 L 13.113281 0 L 13.113281 -19.261719 Z M 19.335938 -19.261719 "/></g></g></g><g fill="#c1ff72" fill-opacity="1"><g transform="translate(712.516834, 418.561357)"><g><path d="M 19.671875 0 L 19.671875 -5.695312 L 7.230469 -5.695312 L 7.230469 -9.816406 L 19.671875 -9.816406 L 19.671875 -15.324219 L 7.230469 -15.324219 L 7.230469 -19.261719 L 19.671875 -19.261719 L 19.671875 -24.992188 L 0.972656 -24.992188 L 0.972656 0 Z M 19.671875 0 "/></g></g></g><g fill="#c1ff72" fill-opacity="1"><g transform="translate(737.098245, 418.561357)"><g><path d="M 19.375 0 L 19.375 -24.992188 L 0.597656 -24.992188 L 0.597656 -19.261719 L 1.835938 -19.261719 L 1.835938 -5.695312 L 0.597656 -5.695312 L 0.597656 0 Z M 13.113281 -5.695312 L 6.855469 -5.695312 L 6.855469 -19.261719 L 13.113281 -19.261719 Z M 13.113281 -5.695312 "/></g></g></g><path stroke-linecap="butt" transform="matrix(0.522771, 0, 0, 0.522771, 762.072736, 389.322891)" fill="none" stroke-linejoin="miter" d="M 15.567434 49.334021 C 13.363134 49.334021 11.375529 48.952938 9.612089 48.183301 C 7.848649 47.39872 6.458819 46.307779 5.450072 44.88806 C 4.441325 43.460869 3.940687 41.809513 3.940687 39.919046 L 9.701755 39.919046 C 9.836255 41.338764 10.39667 42.504428 11.390473 43.423508 C 12.384276 44.327645 13.774106 44.783449 15.567434 44.783449 C 17.435485 44.783449 18.885092 44.335117 19.923728 43.445925 C 20.962364 42.541789 21.485419 41.383597 21.485419 39.963879 C 21.485419 38.857993 21.164114 37.953856 20.514032 37.258941 C 19.871423 36.571499 19.064425 36.0335 18.100511 35.65989 C 17.136597 35.278808 15.806545 34.867837 14.102883 34.419505 C 11.965833 33.859089 10.224809 33.28373 8.879813 32.700898 C 7.542289 32.110594 6.399042 31.206458 5.450072 29.981016 C 4.501102 28.755575 4.030354 27.104218 4.030354 25.049363 C 4.030354 23.166368 4.501102 21.515011 5.450072 20.095293 C 6.399042 18.668102 7.721622 17.57716 9.425284 16.822468 C 11.128946 16.060303 13.101607 15.679221 15.343268 15.679221 C 18.518954 15.679221 21.126753 16.478747 23.159192 18.070326 C 25.199103 19.669377 26.327406 21.85126 26.5441 24.638392 L 20.581282 24.638392 C 20.491616 23.435367 19.923728 22.411675 18.885092 21.559844 C 17.846456 20.708013 16.479043 20.282098 14.775381 20.282098 C 13.228635 20.282098 11.965833 20.678124 10.986974 21.470178 C 10.008116 22.254759 9.51495 23.390534 9.51495 24.87003 C 9.51495 25.878777 9.828783 26.700719 10.441503 27.350801 C 11.054224 27.99341 11.838805 28.508992 12.77283 28.890075 C 13.7218 29.263685 15.014491 29.674656 16.658376 30.122988 C 18.832787 30.720764 20.611171 31.326013 21.986056 31.923789 C 23.353469 32.521565 24.519133 33.440646 25.483047 34.688504 C 26.446961 35.936362 26.925182 37.595191 26.925182 39.679935 C 26.925182 41.346236 26.47685 42.930343 25.572713 44.409839 C 24.683521 45.889335 23.375886 47.084888 21.649807 47.981552 C 19.9312 48.885688 17.906234 49.334021 15.567434 49.334021 Z M 73.775891 16.112609 L 62.896364 37.079609 L 62.896364 48.997771 L 57.501434 48.997771 L 57.501434 37.079609 L 46.56213 16.112609 L 52.577253 16.112609 L 60.191427 32.245094 L 67.813074 16.112609 Z M 121.13471 48.997771 L 115.73978 48.997771 L 99.510156 24.436642 L 99.510156 48.997771 L 94.115226 48.997771 L 94.115226 16.060303 L 99.510156 16.060303 L 115.73978 40.576599 L 115.73978 16.060303 L 121.13471 16.060303 Z M 165.564426 16.112609 L 165.564426 20.513736 L 156.814477 20.513736 L 156.814477 48.997771 L 151.419547 48.997771 L 151.419547 20.513736 L 142.617292 20.513736 L 142.617292 16.112609 Z M 206.915594 42.272789 L 193.144325 42.272789 L 190.790581 48.997771 L 185.149068 48.997771 L 196.932731 16.060303 L 203.186965 16.060303 L 214.970628 48.997771 L 209.284282 48.997771 Z M 205.398737 37.871662 L 200.063584 22.591008 L 194.668654 37.871662 Z M 251.255643 32.581343 L 261.477616 48.997771 L 255.41766 48.997771 L 247.990291 37.079609 L 241.03367 48.997771 L 235.026019 48.997771 L 245.247992 32.581343 L 234.981186 16.112609 L 241.03367 16.112609 L 248.505873 28.135382 L 255.507326 16.112609 L 261.529921 16.112609 Z M 251.255643 32.581343 " stroke="#800000" stroke-width="3.549225" stroke-opacity="1" stroke-miterlimit="4"/><g fill="#ff3131" fill-opacity="1"><g transform="translate(762.693526, 414.938665)"><g><path d="M 7.515625 0.171875 C 6.359375 0.171875 5.316406 -0.0234375 4.390625 -0.421875 C 3.472656 -0.828125 2.75 -1.398438 2.21875 -2.140625 C 1.695312 -2.890625 1.4375 -3.757812 1.4375 -4.75 L 4.453125 -4.75 C 4.515625 -4.007812 4.804688 -3.398438 5.328125 -2.921875 C 5.847656 -2.441406 6.578125 -2.203125 7.515625 -2.203125 C 8.492188 -2.203125 9.253906 -2.4375 9.796875 -2.90625 C 10.335938 -3.375 10.609375 -3.976562 10.609375 -4.71875 C 10.609375 -5.300781 10.4375 -5.769531 10.09375 -6.125 C 9.757812 -6.488281 9.34375 -6.769531 8.84375 -6.96875 C 8.34375 -7.164062 7.644531 -7.382812 6.75 -7.625 C 5.632812 -7.914062 4.722656 -8.210938 4.015625 -8.515625 C 3.316406 -8.828125 2.71875 -9.300781 2.21875 -9.9375 C 1.726562 -10.582031 1.484375 -11.441406 1.484375 -12.515625 C 1.484375 -13.503906 1.726562 -14.367188 2.21875 -15.109375 C 2.71875 -15.847656 3.410156 -16.414062 4.296875 -16.8125 C 5.191406 -17.207031 6.222656 -17.40625 7.390625 -17.40625 C 9.054688 -17.40625 10.421875 -16.988281 11.484375 -16.15625 C 12.546875 -15.332031 13.132812 -14.191406 13.25 -12.734375 L 10.140625 -12.734375 C 10.085938 -13.359375 9.789062 -13.894531 9.25 -14.34375 C 8.707031 -14.789062 7.988281 -15.015625 7.09375 -15.015625 C 6.289062 -15.015625 5.632812 -14.804688 5.125 -14.390625 C 4.613281 -13.984375 4.359375 -13.390625 4.359375 -12.609375 C 4.359375 -12.085938 4.515625 -11.65625 4.828125 -11.3125 C 5.148438 -10.976562 5.554688 -10.710938 6.046875 -10.515625 C 6.546875 -10.316406 7.226562 -10.101562 8.09375 -9.875 C 9.226562 -9.5625 10.15625 -9.242188 10.875 -8.921875 C 11.59375 -8.609375 12.203125 -8.125 12.703125 -7.46875 C 13.203125 -6.820312 13.453125 -5.957031 13.453125 -4.875 C 13.453125 -4 13.21875 -3.171875 12.75 -2.390625 C 12.28125 -1.617188 11.59375 -1 10.6875 -0.53125 C 9.789062 -0.0625 8.734375 0.171875 7.515625 0.171875 Z M 7.515625 0.171875 "/></g></g></g><g fill="#ff3131" fill-opacity="1"><g transform="translate(786.043911, 414.938665)"><g><path d="M 14.59375 -17.1875 L 8.90625 -6.234375 L 8.90625 0 L 6.078125 0 L 6.078125 -6.234375 L 0.375 -17.1875 L 3.515625 -17.1875 L 7.5 -8.75 L 11.484375 -17.1875 Z M 14.59375 -17.1875 "/></g></g></g><g fill="#ff3131" fill-opacity="1"><g transform="translate(809.419024, 414.938665)"><g><path d="M 15.984375 0 L 13.15625 0 L 4.671875 -12.84375 L 4.671875 0 L 1.859375 0 L 1.859375 -17.21875 L 4.671875 -17.21875 L 13.15625 -4.40625 L 13.15625 -17.21875 L 15.984375 -17.21875 Z M 15.984375 0 "/></g></g></g><g fill="#ff3131" fill-opacity="1"><g transform="translate(835.663238, 414.938665)"><g><path d="M 12.953125 -17.1875 L 12.953125 -14.890625 L 8.390625 -14.890625 L 8.390625 0 L 5.5625 0 L 5.5625 -14.890625 L 0.96875 -14.890625 L 0.96875 -17.1875 Z M 12.953125 -17.1875 "/></g></g></g><g fill="#ff3131" fill-opacity="1"><g transform="translate(858.024281, 414.938665)"><g><path d="M 12.21875 -3.515625 L 5.015625 -3.515625 L 3.78125 0 L 0.84375 0 L 7 -17.21875 L 10.265625 -17.21875 L 16.421875 0 L 13.453125 0 Z M 11.421875 -5.8125 L 8.625 -13.796875 L 5.8125 -5.8125 Z M 11.421875 -5.8125 "/></g></g></g><g fill="#ff3131" fill-opacity="1"><g transform="translate(883.674883, 414.938665)"><g><path d="M 9.75 -8.578125 L 15.09375 0 L 11.921875 0 L 8.03125 -6.234375 L 4.40625 0 L 1.265625 0 L 6.609375 -8.578125 L 1.234375 -17.1875 L 4.40625 -17.1875 L 8.3125 -10.90625 L 11.96875 -17.1875 L 15.109375 -17.1875 Z M 9.75 -8.578125 "/></g></g></g></svg>