<svg xmlns="http://www.w3.org/2000/svg" xmlns:xlink="http://www.w3.org/1999/xlink" zoomAndPan="magnify" preserveAspectRatio="xMidYMid meet" version="1.0" viewBox="664.64 396.29 110.86 16.22"><defs><g/></defs><path stroke-linecap="butt" transform="matrix(0.75, 0, 0, 0.75, 664.027581, 391.117968)" fill="none" stroke-linejoin="miter" d="M 8.713226 27.18646 C 7.468434 27.18646 6.348643 26.972919 5.353851 26.535419 C 4.359059 26.097919 3.577809 25.483335 3.010101 24.681252 C 2.442392 23.879168 2.155934 22.946877 2.155934 21.884377 L 5.405934 21.884377 C 5.478851 22.681252 5.796559 23.337502 6.359059 23.858335 C 6.916351 24.368752 7.702809 24.62396 8.713226 24.62396 C 9.765309 24.62396 10.583018 24.37396 11.166351 23.868752 C 11.754893 23.363543 12.04656 22.707293 12.04656 21.910418 C 12.04656 21.285418 11.864268 20.775002 11.499684 20.389585 C 11.135101 19.99896 10.681976 19.696877 10.140309 19.483335 C 9.593434 19.269793 8.843434 19.035418 7.885101 18.785418 C 6.681976 18.46771 5.697601 18.144793 4.942392 17.816668 C 4.187184 17.488543 3.546559 16.978126 3.010101 16.285418 C 2.478851 15.59271 2.208017 14.665626 2.208017 13.509376 C 2.208017 12.441668 2.478851 11.514584 3.010101 10.712501 C 3.546559 9.910418 4.291351 9.295834 5.249684 8.873959 C 6.208018 8.441668 7.317393 8.228126 8.583018 8.228126 C 10.374684 8.228126 11.843435 8.676043 12.989268 9.577084 C 14.14031 10.472918 14.775726 11.707293 14.895518 13.275001 L 11.536143 13.275001 C 11.484059 12.597918 11.166351 12.019793 10.583018 11.540626 C 9.994476 11.061459 9.223643 10.816668 8.265309 10.816668 C 7.390309 10.816668 6.681976 11.040626 6.129893 11.488543 C 5.577809 11.931251 5.301768 12.571876 5.301768 13.40521 C 5.301768 13.972918 5.473643 14.43646 5.822601 14.801043 C 6.171559 15.165626 6.609059 15.457293 7.135101 15.665626 C 7.671559 15.879168 8.400726 16.113543 9.322601 16.363543 C 10.551768 16.702085 11.551768 17.040626 12.322601 17.379168 C 13.098643 17.712501 13.754893 18.233335 14.29656 18.93646 C 14.838226 19.639585 15.10906 20.577085 15.10906 21.74896 C 15.10906 22.68646 14.85906 23.577085 14.348643 24.415627 C 13.848643 25.24896 13.10906 25.920835 12.135101 26.426044 C 11.166351 26.93646 10.025726 27.18646 8.713226 27.18646 Z M 41.510103 8.467709 L 35.374686 20.285418 L 35.374686 26.99896 L 32.338227 26.99896 L 32.338227 20.285418 L 26.17156 8.467709 L 29.562185 8.467709 L 33.853852 17.56146 L 38.150727 8.467709 Z M 68.192396 26.99896 L 65.150729 26.99896 L 56.010103 13.160418 L 56.010103 26.99896 L 52.968437 26.99896 L 52.968437 8.441668 L 56.010103 8.441668 L 65.150729 22.254168 L 65.150729 8.441668 L 68.192396 8.441668 Z M 93.223647 8.467709 L 93.223647 10.946876 L 88.296563 10.946876 L 88.296563 26.99896 L 85.254897 26.99896 L 85.254897 10.946876 L 80.296563 10.946876 L 80.296563 8.467709 Z M 116.525731 23.212502 L 108.765314 23.212502 L 107.437189 26.99896 L 104.260106 26.99896 L 110.900731 8.441668 L 114.421565 8.441668 L 121.06219 26.99896 L 117.859065 26.99896 Z M 115.671565 20.733335 L 112.666356 12.118751 L 109.624689 20.733335 Z M 141.510108 17.74896 L 147.270525 26.99896 L 143.848649 26.99896 L 139.666358 20.285418 L 135.749691 26.99896 L 132.364274 26.99896 L 138.124691 17.74896 L 132.338232 8.467709 L 135.749691 8.467709 L 139.958024 15.243751 L 143.900733 8.467709 L 147.296566 8.467709 Z M 141.510108 17.74896 " stroke="#800000" stroke-width="2.000002" stroke-opacity="1" stroke-miterlimit="4"/><g fill="#ff3131" fill-opacity="1"><g transform="translate(664.484612, 411.367967)"><g><path d="M 6.078125 0.140625 C 5.148438 0.140625 4.3125 -0.0195312 3.5625 -0.34375 C 2.8125 -0.675781 2.222656 -1.140625 1.796875 -1.734375 C 1.367188 -2.335938 1.15625 -3.039062 1.15625 -3.84375 L 3.59375 -3.84375 C 3.65625 -3.238281 3.894531 -2.742188 4.3125 -2.359375 C 4.726562 -1.972656 5.316406 -1.78125 6.078125 -1.78125 C 6.867188 -1.78125 7.484375 -1.96875 7.921875 -2.34375 C 8.359375 -2.726562 8.578125 -3.21875 8.578125 -3.8125 C 8.578125 -4.28125 8.441406 -4.660156 8.171875 -4.953125 C 7.898438 -5.253906 7.5625 -5.484375 7.15625 -5.640625 C 6.75 -5.796875 6.179688 -5.96875 5.453125 -6.15625 C 4.546875 -6.394531 3.8125 -6.640625 3.25 -6.890625 C 2.6875 -7.140625 2.203125 -7.519531 1.796875 -8.03125 C 1.398438 -8.550781 1.203125 -9.25 1.203125 -10.125 C 1.203125 -10.914062 1.398438 -11.613281 1.796875 -12.21875 C 2.203125 -12.820312 2.765625 -13.28125 3.484375 -13.59375 C 4.203125 -13.914062 5.035156 -14.078125 5.984375 -14.078125 C 7.328125 -14.078125 8.425781 -13.738281 9.28125 -13.0625 C 10.144531 -12.394531 10.625 -11.472656 10.71875 -10.296875 L 8.203125 -10.296875 C 8.160156 -10.804688 7.914062 -11.238281 7.46875 -11.59375 C 7.03125 -11.957031 6.453125 -12.140625 5.734375 -12.140625 C 5.085938 -12.140625 4.554688 -11.972656 4.140625 -11.640625 C 3.722656 -11.304688 3.515625 -10.828125 3.515625 -10.203125 C 3.515625 -9.773438 3.644531 -9.421875 3.90625 -9.140625 C 4.164062 -8.867188 4.492188 -8.65625 4.890625 -8.5 C 5.296875 -8.34375 5.847656 -8.171875 6.546875 -7.984375 C 7.460938 -7.722656 8.207031 -7.46875 8.78125 -7.21875 C 9.363281 -6.96875 9.859375 -6.578125 10.265625 -6.046875 C 10.671875 -5.523438 10.875 -4.820312 10.875 -3.9375 C 10.875 -3.226562 10.679688 -2.5625 10.296875 -1.9375 C 9.921875 -1.3125 9.367188 -0.804688 8.640625 -0.421875 C 7.921875 -0.046875 7.066406 0.140625 6.078125 0.140625 Z M 6.078125 0.140625 "/></g></g></g><g fill="#ff3131" fill-opacity="1"><g transform="translate(683.359852, 411.367967)"><g><path d="M 11.796875 -13.90625 L 7.203125 -5.046875 L 7.203125 0 L 4.921875 0 L 4.921875 -5.046875 L 0.296875 -13.90625 L 2.84375 -13.90625 L 6.0625 -7.078125 L 9.28125 -13.90625 Z M 11.796875 -13.90625 "/></g></g></g><g fill="#ff3131" fill-opacity="1"><g transform="translate(702.255085, 411.367967)"><g><path d="M 12.921875 0 L 10.640625 0 L 3.78125 -10.375 L 3.78125 0 L 1.5 0 L 1.5 -13.921875 L 3.78125 -13.921875 L 10.640625 -3.5625 L 10.640625 -13.921875 L 12.921875 -13.921875 Z M 12.921875 0 "/></g></g></g><g fill="#ff3131" fill-opacity="1"><g transform="translate(723.469403, 411.367967)"><g><path d="M 10.484375 -13.90625 L 10.484375 -12.046875 L 6.78125 -12.046875 L 6.78125 0 L 4.5 0 L 4.5 -12.046875 L 0.78125 -12.046875 L 0.78125 -13.90625 Z M 10.484375 -13.90625 "/></g></g></g><g fill="#ff3131" fill-opacity="1"><g transform="translate(741.544968, 411.367967)"><g><path d="M 9.875 -2.84375 L 4.0625 -2.84375 L 3.0625 0 L 0.6875 0 L 5.65625 -13.921875 L 8.296875 -13.921875 L 13.28125 0 L 10.875 0 Z M 9.234375 -4.703125 L 6.984375 -11.15625 L 4.703125 -4.703125 Z M 9.234375 -4.703125 "/></g></g></g><g fill="#ff3131" fill-opacity="1"><g transform="translate(762.279475, 411.367967)"><g><path d="M 7.875 -6.9375 L 12.203125 0 L 9.640625 0 L 6.5 -5.046875 L 3.5625 0 L 1.015625 0 L 5.34375 -6.9375 L 1 -13.90625 L 3.5625 -13.90625 L 6.71875 -8.8125 L 9.6875 -13.90625 L 12.21875 -13.90625 Z M 7.875 -6.9375 "/></g></g></g></svg>