<svg xmlns="http://www.w3.org/2000/svg" xmlns:xlink="http://www.w3.org/1999/xlink" width="500" zoomAndPan="magnify" viewBox="0 0 375 374.999991" height="500" preserveAspectRatio="xMidYMid meet" version="1.0"><defs><g/><clipPath id="19fda79b7e"><path d="M 55.523438 28.386719 L 170 28.386719 L 170 159 L 55.523438 159 Z M 55.523438 28.386719 " clip-rule="nonzero"/></clipPath><clipPath id="de57befed1"><path d="M 205 84 L 319.523438 84 L 319.523438 215 L 205 215 Z M 205 84 " clip-rule="nonzero"/></clipPath><clipPath id="7b8f54e38e"><path d="M 205 28.386719 L 270 28.386719 L 270 109 L 205 109 Z M 205 28.386719 " clip-rule="nonzero"/></clipPath></defs><g clip-path="url(#19fda79b7e)"><path fill="#ff0000" d="M 55.523438 121.585938 L 169.535156 28.476562 L 169.535156 90.976562 L 122.394531 129.480469 L 106.867188 142.160156 C 102.644531 145.609375 100.222656 150.710938 100.222656 156.164062 C 100.222656 156.84375 100.261719 157.515625 100.335938 158.183594 Z M 55.523438 121.585938 " fill-opacity="1" fill-rule="nonzero"/></g><path fill="#ff914d" d="M 110.128906 166.179688 C 107.109375 163.714844 105.378906 160.066406 105.378906 156.164062 C 105.378906 152.265625 107.109375 148.617188 110.128906 146.152344 L 124.023438 134.804688 L 169.535156 171.976562 L 169.535156 214.699219 Z M 110.128906 166.179688 " fill-opacity="1" fill-rule="nonzero"/><g clip-path="url(#de57befed1)"><path fill="#8c52ff" d="M 205.476562 152.195312 L 252.617188 113.691406 L 268.140625 101.015625 C 272.363281 97.566406 274.785156 92.460938 274.785156 87.007812 C 274.785156 86.332031 274.75 85.65625 274.675781 84.992188 L 319.484375 121.585938 L 205.476562 214.699219 Z M 205.476562 152.195312 " fill-opacity="1" fill-rule="nonzero"/></g><g clip-path="url(#7b8f54e38e)"><path fill="#38c5ca" d="M 205.476562 71.195312 L 205.476562 28.476562 L 264.878906 76.992188 C 267.898438 79.457031 269.632812 83.109375 269.632812 87.007812 C 269.632812 90.90625 267.898438 94.558594 264.878906 97.023438 L 250.984375 108.367188 Z M 205.476562 71.195312 " fill-opacity="1" fill-rule="nonzero"/></g><path stroke-linecap="butt" transform="matrix(0.75, 0, 0, 0.75, -8.776422, 218.934185)" fill="none" stroke-linejoin="miter" d="M 132.076905 79.999217 L 132.076905 48.811715 L 106.602945 48.811715 L 106.602945 40.801298 L 132.076905 40.801298 L 132.076905 29.129422 L 93.847736 29.129422 L 93.847736 60.020049 L 119.342529 60.020049 L 119.342529 68.400258 L 93.847736 68.400258 L 93.847736 79.999217 Z M 182.186283 65.811716 L 182.186283 29.129422 L 143.957114 29.129422 L 143.957114 79.999217 L 156.712323 79.999217 L 156.712323 65.811716 Z M 169.446699 54.228382 L 156.712323 54.228382 L 156.712323 40.801298 L 169.446699 40.801298 Z M 206.665452 79.999217 L 206.665452 29.129422 L 193.910242 29.129422 L 193.910242 79.999217 Z M 256.847746 79.999217 L 249.363371 65.811716 L 256.847746 65.811716 L 256.847746 29.129422 L 218.623786 29.129422 L 218.623786 79.999217 L 231.378995 79.999217 L 231.378995 65.811716 L 236.852953 65.811716 L 244.113371 79.999217 Z M 244.113371 54.228382 L 231.378995 54.228382 L 231.378995 40.801298 L 244.113371 40.801298 Z M 281.56129 79.999217 L 281.56129 29.129422 L 268.806081 29.129422 L 268.806081 79.999217 Z M 330.905043 40.801298 L 330.905043 29.129422 L 292.675874 29.129422 L 292.675874 40.801298 L 305.509208 40.801298 L 305.509208 79.999217 L 318.243584 79.999217 L 318.243584 40.801298 Z M 380.08213 79.999217 L 380.08213 68.400258 L 354.774836 68.400258 L 354.774836 60.020049 L 380.08213 60.020049 L 380.08213 48.811715 L 354.774836 48.811715 L 354.774836 40.801298 L 380.08213 40.801298 L 380.08213 29.129422 L 342.019627 29.129422 L 342.019627 79.999217 Z M 429.519633 79.999217 L 429.519633 29.129422 L 391.306089 29.129422 L 391.306089 40.801298 L 393.821714 40.801298 L 393.821714 68.400258 L 391.306089 68.400258 L 391.306089 79.999217 Z M 416.780049 68.400258 L 404.045673 68.400258 L 404.045673 40.801298 L 416.780049 40.801298 Z M 416.780049 68.400258 " stroke="#478000" stroke-width="5.72052" stroke-opacity="1" stroke-miterlimit="4"/><g fill="#c1ff72" fill-opacity="1"><g transform="translate(60.129823, 278.934181)"><g><path d="M 30.144531 0 L 30.144531 -23.394531 L 11.039062 -23.394531 L 11.039062 -29.402344 L 30.144531 -29.402344 L 30.144531 -38.152344 L 1.488281 -38.152344 L 1.488281 -14.988281 L 20.59375 -14.988281 L 20.59375 -8.695312 L 1.488281 -8.695312 L 1.488281 0 Z M 30.144531 0 "/></g></g></g><g fill="#c1ff72" fill-opacity="1"><g transform="translate(97.710318, 278.934181)"><g><path d="M 30.144531 -10.640625 L 30.144531 -38.152344 L 1.488281 -38.152344 L 1.488281 0 L 11.039062 0 L 11.039062 -10.640625 Z M 20.59375 -19.335938 L 11.039062 -19.335938 L 11.039062 -29.402344 L 20.59375 -29.402344 Z M 20.59375 -19.335938 "/></g></g></g><g fill="#c1ff72" fill-opacity="1"><g transform="translate(135.176407, 278.934181)"><g><path d="M 11.039062 0 L 11.039062 -38.152344 L 1.488281 -38.152344 L 1.488281 0 Z M 11.039062 0 "/></g></g></g><g fill="#c1ff72" fill-opacity="1"><g transform="translate(153.709575, 278.934181)"><g><path d="M 30.144531 0 L 24.539062 -10.640625 L 30.144531 -10.640625 L 30.144531 -38.152344 L 1.488281 -38.152344 L 1.488281 0 L 11.039062 0 L 11.039062 -10.640625 L 15.160156 -10.640625 L 20.59375 0 Z M 20.59375 -19.335938 L 11.039062 -19.335938 L 11.039062 -29.402344 L 20.59375 -29.402344 Z M 20.59375 -19.335938 "/></g></g></g><g fill="#c1ff72" fill-opacity="1"><g transform="translate(191.347268, 278.934181)"><g><path d="M 11.039062 0 L 11.039062 -38.152344 L 1.488281 -38.152344 L 1.488281 0 Z M 11.039062 0 "/></g></g></g><g fill="#c1ff72" fill-opacity="1"><g transform="translate(209.880435, 278.934181)"><g><path d="M 29.515625 -29.402344 L 29.515625 -38.152344 L 0.859375 -38.152344 L 0.859375 -29.402344 L 10.46875 -29.402344 L 10.46875 0 L 20.019531 0 L 20.019531 -29.402344 Z M 29.515625 -29.402344 "/></g></g></g><g fill="#c1ff72" fill-opacity="1"><g transform="translate(246.259748, 278.934181)"><g><path d="M 30.03125 0 L 30.03125 -8.695312 L 11.039062 -8.695312 L 11.039062 -14.988281 L 30.03125 -14.988281 L 30.03125 -23.394531 L 11.039062 -23.394531 L 11.039062 -29.402344 L 30.03125 -29.402344 L 30.03125 -38.152344 L 1.488281 -38.152344 L 1.488281 0 Z M 30.03125 0 "/></g></g></g><g fill="#c1ff72" fill-opacity="1"><g transform="translate(283.783022, 278.934181)"><g><path d="M 29.574219 0 L 29.574219 -38.152344 L 0.914062 -38.152344 L 0.914062 -29.402344 L 2.804688 -29.402344 L 2.804688 -8.695312 L 0.914062 -8.695312 L 0.914062 0 Z M 20.019531 -8.695312 L 10.46875 -8.695312 L 10.46875 -29.402344 L 20.019531 -29.402344 Z M 20.019531 -8.695312 "/></g></g></g><path stroke-linecap="butt" transform="matrix(0.75, 0, 0, 0.75, 57.317077, 289.713672)" fill="none" stroke-linejoin="miter" d="M 74.733486 41.282815 C 72.863694 41.282815 71.186611 40.959898 69.697027 40.308856 C 68.207444 39.647398 67.035569 38.720315 66.181402 37.522398 C 65.327235 36.319273 64.900152 34.918231 64.900152 33.324481 L 69.775152 33.324481 C 69.884527 34.522398 70.358486 35.511981 71.197027 36.282814 C 72.040777 37.053648 73.217861 37.433856 74.733486 37.433856 C 76.306403 37.433856 77.535569 37.058856 78.415778 36.303648 C 79.290778 35.543231 79.733486 34.564064 79.733486 33.366148 C 79.733486 32.428648 79.457445 31.668231 78.91057 31.079689 C 78.363694 30.496356 77.686611 30.043231 76.868903 29.725522 C 76.056403 29.402606 74.931403 29.058856 73.493903 28.678647 C 71.681402 28.204689 70.212652 27.720314 69.082444 27.225522 C 67.947027 26.730731 66.983485 25.965105 66.181402 24.928647 C 65.379319 23.88698 64.978277 22.496355 64.978277 20.76198 C 64.978277 19.16823 65.379319 17.772397 66.181402 16.57448 C 66.983485 15.366146 68.103277 14.44948 69.540777 13.808855 C 70.978277 13.163021 72.644944 12.845313 74.535569 12.845313 C 77.228278 12.845313 79.431403 13.517188 81.150153 14.866146 C 82.874111 16.209896 83.827237 18.058855 84.009528 20.407813 L 78.97307 20.407813 C 78.894945 19.392188 78.415778 18.527605 77.535569 17.814063 C 76.655361 17.090105 75.499111 16.73073 74.061611 16.73073 C 72.749111 16.73073 71.681402 17.064063 70.858486 17.735938 C 70.030361 18.397397 69.618902 19.35573 69.618902 20.60573 C 69.618902 21.459897 69.879319 22.157814 70.400152 22.704689 C 70.920986 23.251564 71.577236 23.683855 72.368902 24.001564 C 73.170986 24.319272 74.264736 24.66823 75.650153 25.048439 C 77.493903 25.553647 78.993903 26.064064 80.150153 26.569272 C 81.311611 27.069272 82.295986 27.850522 83.108486 28.902606 C 83.926195 29.959897 84.332445 31.366147 84.332445 33.121356 C 84.332445 34.532814 83.952237 35.866148 83.186611 37.126565 C 82.431403 38.371356 81.327236 39.381773 79.868903 40.14219 C 78.415778 40.902606 76.707444 41.282815 74.733486 41.282815 Z M 123.926197 13.204688 L 114.72828 30.923439 L 114.72828 41.001565 L 110.170988 41.001565 L 110.170988 30.923439 L 100.926196 13.204688 L 106.00953 13.204688 L 112.44703 26.845314 L 118.889739 13.204688 Z M 163.952242 41.001565 L 159.39495 41.001565 L 145.676199 20.241147 L 145.676199 41.001565 L 141.118907 41.001565 L 141.118907 13.163021 L 145.676199 13.163021 L 159.39495 33.881773 L 159.39495 13.163021 L 163.952242 13.163021 Z M 201.499119 13.204688 L 201.499119 16.923438 L 194.108494 16.923438 L 194.108494 41.001565 L 189.551202 41.001565 L 189.551202 16.923438 L 182.108493 16.923438 L 182.108493 13.204688 Z M 236.452247 35.319273 L 224.811621 35.319273 L 222.822037 41.001565 L 218.056412 41.001565 L 228.014746 13.163021 L 233.295996 13.163021 L 243.25433 41.001565 L 238.452247 41.001565 Z M 235.170996 31.600523 L 230.660579 18.683855 L 226.103288 31.600523 Z M 273.926207 27.126564 L 282.566833 41.001565 L 277.441833 41.001565 L 271.160582 30.923439 L 265.285582 41.001565 L 260.207456 41.001565 L 268.848082 27.126564 L 260.170998 13.204688 L 265.285582 13.204688 L 271.603291 23.366147 L 277.519958 13.204688 L 282.603291 13.204688 Z M 273.926207 27.126564 " stroke="#800000" stroke-width="2.999978" stroke-opacity="1" stroke-miterlimit="4"/><g fill="#ff3131" fill-opacity="1"><g transform="translate(104.250667, 320.46367)"><g><path d="M 9.125 0.203125 C 7.71875 0.203125 6.453125 -0.0390625 5.328125 -0.53125 C 4.210938 -1.019531 3.332031 -1.710938 2.6875 -2.609375 C 2.050781 -3.503906 1.734375 -4.554688 1.734375 -5.765625 L 5.40625 -5.765625 C 5.476562 -4.859375 5.828125 -4.113281 6.453125 -3.53125 C 7.085938 -2.957031 7.976562 -2.671875 9.125 -2.671875 C 10.300781 -2.671875 11.21875 -2.953125 11.875 -3.515625 C 12.539062 -4.085938 12.875 -4.828125 12.875 -5.734375 C 12.875 -6.429688 12.664062 -7 12.25 -7.4375 C 11.84375 -7.875 11.332031 -8.210938 10.71875 -8.453125 C 10.113281 -8.691406 9.269531 -8.953125 8.1875 -9.234375 C 6.832031 -9.597656 5.726562 -9.960938 4.875 -10.328125 C 4.019531 -10.703125 3.289062 -11.28125 2.6875 -12.0625 C 2.09375 -12.84375 1.796875 -13.882812 1.796875 -15.1875 C 1.796875 -16.382812 2.09375 -17.429688 2.6875 -18.328125 C 3.289062 -19.234375 4.132812 -19.925781 5.21875 -20.40625 C 6.300781 -20.882812 7.550781 -21.125 8.96875 -21.125 C 10.988281 -21.125 12.644531 -20.617188 13.9375 -19.609375 C 15.226562 -18.597656 15.941406 -17.210938 16.078125 -15.453125 L 12.296875 -15.453125 C 12.234375 -16.210938 11.875 -16.859375 11.21875 -17.390625 C 10.5625 -17.929688 9.691406 -18.203125 8.609375 -18.203125 C 7.628906 -18.203125 6.828125 -17.953125 6.203125 -17.453125 C 5.585938 -16.953125 5.28125 -16.234375 5.28125 -15.296875 C 5.28125 -14.660156 5.472656 -14.132812 5.859375 -13.71875 C 6.253906 -13.3125 6.75 -12.988281 7.34375 -12.75 C 7.945312 -12.507812 8.769531 -12.25 9.8125 -11.96875 C 11.1875 -11.59375 12.304688 -11.210938 13.171875 -10.828125 C 14.046875 -10.453125 14.785156 -9.867188 15.390625 -9.078125 C 16.003906 -8.285156 16.3125 -7.226562 16.3125 -5.90625 C 16.3125 -4.84375 16.023438 -3.84375 15.453125 -2.90625 C 14.890625 -1.96875 14.0625 -1.210938 12.96875 -0.640625 C 11.882812 -0.078125 10.601562 0.203125 9.125 0.203125 Z M 9.125 0.203125 "/></g></g></g><g fill="#ff3131" fill-opacity="1"><g transform="translate(132.563555, 320.46367)"><g><path d="M 17.703125 -20.84375 L 10.796875 -7.5625 L 10.796875 0 L 7.375 0 L 7.375 -7.5625 L 0.453125 -20.84375 L 4.265625 -20.84375 L 9.09375 -10.625 L 13.921875 -20.84375 Z M 17.703125 -20.84375 "/></g></g></g><g fill="#ff3131" fill-opacity="1"><g transform="translate(160.906426, 320.46367)"><g><path d="M 19.375 0 L 15.953125 0 L 5.671875 -15.5625 L 5.671875 0 L 2.25 0 L 2.25 -20.875 L 5.671875 -20.875 L 15.953125 -5.34375 L 15.953125 -20.875 L 19.375 -20.875 Z M 19.375 0 "/></g></g></g><g fill="#ff3131" fill-opacity="1"><g transform="translate(192.727946, 320.46367)"><g><path d="M 15.71875 -20.84375 L 15.71875 -18.0625 L 10.171875 -18.0625 L 10.171875 0 L 6.75 0 L 6.75 -18.0625 L 1.171875 -18.0625 L 1.171875 -20.84375 Z M 15.71875 -20.84375 "/></g></g></g><g fill="#ff3131" fill-opacity="1"><g transform="translate(219.841297, 320.46367)"><g><path d="M 14.8125 -4.265625 L 6.09375 -4.265625 L 4.59375 0 L 1.015625 0 L 8.484375 -20.875 L 12.453125 -20.875 L 19.921875 0 L 16.3125 0 Z M 13.859375 -7.046875 L 10.46875 -16.734375 L 7.046875 -7.046875 Z M 13.859375 -7.046875 "/></g></g></g><g fill="#ff3131" fill-opacity="1"><g transform="translate(250.943098, 320.46367)"><g><path d="M 11.8125 -10.40625 L 18.296875 0 L 14.453125 0 L 9.75 -7.5625 L 5.34375 0 L 1.53125 0 L 8.015625 -10.40625 L 1.5 -20.84375 L 5.34375 -20.84375 L 10.078125 -13.234375 L 14.515625 -20.84375 L 18.328125 -20.84375 Z M 11.8125 -10.40625 "/></g></g></g></svg>