<svg xmlns="http://www.w3.org/2000/svg" xmlns:xlink="http://www.w3.org/1999/xlink" zoomAndPan="magnify" preserveAspectRatio="xMidYMid meet" version="1.0" viewBox="693.45 375.32 53.25 57.34"><defs><g/><clipPath id="cf86f79891"><path d="M 693.453125 375.316406 L 717 375.316406 L 717 402 L 693.453125 402 Z M 693.453125 375.316406 " clip-rule="nonzero"/></clipPath><clipPath id="b49162e17d"><path d="M 703 396 L 717 396 L 717 412.816406 L 703 412.816406 Z M 703 396 " clip-rule="nonzero"/></clipPath><clipPath id="58c0e76f18"><path d="M 723 386 L 746.703125 386 L 746.703125 412.816406 L 723 412.816406 Z M 723 386 " clip-rule="nonzero"/></clipPath><clipPath id="07463e887d"><path d="M 723 375.316406 L 737 375.316406 L 737 392 L 723 392 Z M 723 375.316406 " clip-rule="nonzero"/></clipPath></defs><g clip-path="url(#cf86f79891)"><path fill="#ff0000" d="M 693.453125 394.066406 L 716.382812 375.339844 L 716.382812 387.910156 L 706.898438 395.652344 L 703.777344 398.203125 C 702.929688 398.894531 702.441406 399.921875 702.441406 401.019531 C 702.441406 401.15625 702.449219 401.292969 702.464844 401.425781 Z M 693.453125 394.066406 " fill-opacity="1" fill-rule="nonzero"/></g><g clip-path="url(#b49162e17d)"><path fill="#ff914d" d="M 704.433594 403.035156 C 703.824219 402.539062 703.476562 401.804688 703.476562 401.019531 C 703.476562 400.234375 703.824219 399.5 704.433594 399.003906 L 707.226562 396.722656 L 716.382812 404.199219 L 716.382812 412.792969 Z M 704.433594 403.035156 " fill-opacity="1" fill-rule="nonzero"/></g><g clip-path="url(#58c0e76f18)"><path fill="#8c52ff" d="M 723.609375 400.222656 L 733.089844 392.476562 L 736.210938 389.929688 C 737.0625 389.234375 737.550781 388.207031 737.550781 387.109375 C 737.550781 386.972656 737.542969 386.839844 737.527344 386.707031 L 746.539062 394.066406 L 723.609375 412.792969 Z M 723.609375 400.222656 " fill-opacity="1" fill-rule="nonzero"/></g><g clip-path="url(#07463e887d)"><path fill="#38c5ca" d="M 723.609375 383.929688 L 723.609375 375.339844 L 735.558594 385.097656 C 736.164062 385.59375 736.511719 386.328125 736.511719 387.109375 C 736.511719 387.894531 736.164062 388.628906 735.558594 389.125 L 732.761719 391.40625 Z M 723.609375 383.929688 " fill-opacity="1" fill-rule="nonzero"/></g><path stroke-linecap="butt" transform="matrix(0.75, 0, 0, 0.75, 695.497531, 411.716495)" fill="none" stroke-linejoin="miter" d="M 7.7585 13.997799 L 7.7585 8.003007 L 2.862667 8.003007 L 2.862667 6.466548 L 7.7585 6.466548 L 7.7585 4.221756 L 0.409542 4.221756 L 0.409542 10.159257 L 5.310584 10.159257 L 5.310584 11.768632 L 0.409542 11.768632 L 0.409542 13.997799 Z M 17.388709 11.27384 L 17.388709 4.221756 L 10.039751 4.221756 L 10.039751 13.997799 L 12.492876 13.997799 L 12.492876 11.27384 Z M 14.940792 9.044673 L 12.492876 9.044673 L 12.492876 6.466548 L 14.940792 6.466548 Z M 22.091834 13.997799 L 22.091834 4.221756 L 19.643918 4.221756 L 19.643918 13.997799 Z M 31.737668 13.997799 L 30.300168 11.27384 L 31.737668 11.27384 L 31.737668 4.221756 L 24.393918 4.221756 L 24.393918 13.997799 L 26.841835 13.997799 L 26.841835 11.27384 L 27.893918 11.27384 L 29.289751 13.997799 Z M 29.289751 9.044673 L 26.841835 9.044673 L 26.841835 6.466548 L 29.289751 6.466548 Z M 36.487669 13.997799 L 36.487669 4.221756 L 34.034543 4.221756 L 34.034543 13.997799 Z M 45.972044 6.466548 L 45.972044 4.221756 L 38.623085 4.221756 L 38.623085 6.466548 L 41.091835 6.466548 L 41.091835 13.997799 L 43.539752 13.997799 L 43.539752 6.466548 Z M 55.425169 13.997799 L 55.425169 11.768632 L 50.560586 11.768632 L 50.560586 10.159257 L 55.425169 10.159257 L 55.425169 8.003007 L 50.560586 8.003007 L 50.560586 6.466548 L 55.425169 6.466548 L 55.425169 4.221756 L 48.107461 4.221756 L 48.107461 13.997799 Z M 64.92517 13.997799 L 64.92517 4.221756 L 57.58142 4.221756 L 57.58142 6.466548 L 58.065795 6.466548 L 58.065795 11.768632 L 57.58142 11.768632 L 57.58142 13.997799 Z M 62.477253 11.768632 L 60.029336 11.768632 L 60.029336 6.466548 L 62.477253 6.466548 Z M 62.477253 11.768632 " stroke="#478000" stroke-width="1.100025" stroke-opacity="1" stroke-miterlimit="4"/><g fill="#c1ff72" fill-opacity="1"><g transform="translate(695.520969, 422.216495)"><g><path d="M 5.792969 0 L 5.792969 -4.496094 L 2.121094 -4.496094 L 2.121094 -5.652344 L 5.792969 -5.652344 L 5.792969 -7.332031 L 0.285156 -7.332031 L 0.285156 -2.878906 L 3.957031 -2.878906 L 3.957031 -1.671875 L 0.285156 -1.671875 L 0.285156 0 Z M 5.792969 0 "/></g></g></g><g fill="#c1ff72" fill-opacity="1"><g transform="translate(702.743709, 422.216495)"><g><path d="M 5.792969 -2.046875 L 5.792969 -7.332031 L 0.285156 -7.332031 L 0.285156 0 L 2.121094 0 L 2.121094 -2.046875 Z M 3.957031 -3.714844 L 2.121094 -3.714844 L 2.121094 -5.652344 L 3.957031 -5.652344 Z M 3.957031 -3.714844 "/></g></g></g><g fill="#c1ff72" fill-opacity="1"><g transform="translate(709.944466, 422.216495)"><g><path d="M 2.121094 0 L 2.121094 -7.332031 L 0.285156 -7.332031 L 0.285156 0 Z M 2.121094 0 "/></g></g></g><g fill="#c1ff72" fill-opacity="1"><g transform="translate(713.506791, 422.216495)"><g><path d="M 5.792969 0 L 4.71875 -2.046875 L 5.792969 -2.046875 L 5.792969 -7.332031 L 0.285156 -7.332031 L 0.285156 0 L 2.121094 0 L 2.121094 -2.046875 L 2.914062 -2.046875 L 3.957031 0 Z M 3.957031 -3.714844 L 2.121094 -3.714844 L 2.121094 -5.652344 L 3.957031 -5.652344 Z M 3.957031 -3.714844 "/></g></g></g><g fill="#c1ff72" fill-opacity="1"><g transform="translate(720.740519, 422.216495)"><g><path d="M 2.121094 0 L 2.121094 -7.332031 L 0.285156 -7.332031 L 0.285156 0 Z M 2.121094 0 "/></g></g></g><g fill="#c1ff72" fill-opacity="1"><g transform="translate(724.302844, 422.216495)"><g><path d="M 5.671875 -5.652344 L 5.671875 -7.332031 L 0.164062 -7.332031 L 0.164062 -5.652344 L 2.011719 -5.652344 L 2.011719 0 L 3.847656 0 L 3.847656 -5.652344 Z M 5.671875 -5.652344 "/></g></g></g><g fill="#c1ff72" fill-opacity="1"><g transform="translate(731.294746, 422.216495)"><g><path d="M 5.773438 0 L 5.773438 -1.671875 L 2.121094 -1.671875 L 2.121094 -2.878906 L 5.773438 -2.878906 L 5.773438 -4.496094 L 2.121094 -4.496094 L 2.121094 -5.652344 L 5.773438 -5.652344 L 5.773438 -7.332031 L 0.285156 -7.332031 L 0.285156 0 Z M 5.773438 0 "/></g></g></g><g fill="#c1ff72" fill-opacity="1"><g transform="translate(738.506489, 422.216495)"><g><path d="M 5.683594 0 L 5.683594 -7.332031 L 0.175781 -7.332031 L 0.175781 -5.652344 L 0.539062 -5.652344 L 0.539062 -1.671875 L 0.175781 -1.671875 L 0.175781 0 Z M 3.847656 -1.671875 L 2.011719 -1.671875 L 2.011719 -5.652344 L 3.847656 -5.652344 Z M 3.847656 -1.671875 "/></g></g></g><path stroke-linecap="butt" transform="matrix(0.666694, 0, 0, 0.666694, 697.667011, 424.816511)" fill="none" stroke-linejoin="miter" d="M 3.821594 11.085331 C 3.259117 11.085331 2.755231 10.985726 2.309936 10.792374 C 1.858783 10.593163 1.507235 10.317784 1.255292 9.954517 C 0.99749 9.59711 0.868589 9.175252 0.868589 8.694803 L 2.333373 8.694803 C 2.362669 9.058069 2.509147 9.351026 2.76109 9.585392 C 3.013033 9.813898 3.364581 9.931081 3.821594 9.931081 C 4.290325 9.931081 4.65945 9.819757 4.923112 9.591251 C 5.186773 9.362745 5.321533 9.069788 5.321533 8.706521 C 5.321533 8.425283 5.239505 8.196776 5.075449 8.021002 C 4.911393 7.845228 4.706323 7.710468 4.46024 7.616722 C 4.214156 7.522975 3.880185 7.417511 3.446609 7.300328 C 2.901709 7.159709 2.462274 7.013231 2.122444 6.866752 C 1.782614 6.720274 1.495516 6.485908 1.255292 6.175374 C 1.015067 5.86484 0.892025 5.448841 0.892025 4.927378 C 0.892025 4.446929 1.015067 4.03093 1.255292 3.667663 C 1.495516 3.310256 1.829487 3.034876 2.263063 2.841525 C 2.69078 2.648173 3.194666 2.548568 3.763002 2.548568 C 4.565704 2.548568 5.227787 2.753638 5.743391 3.157918 C 6.258995 3.562199 6.546093 4.118817 6.604684 4.821913 L 5.093027 4.821913 C 5.06959 4.517238 4.923112 4.259436 4.65945 4.042648 C 4.395789 3.82586 4.0501 3.714536 3.616524 3.714536 C 3.223962 3.714536 2.901709 3.820001 2.655625 4.019211 C 2.409542 4.218422 2.2865 4.50552 2.2865 4.880505 C 2.2865 5.138307 2.362669 5.343376 2.520865 5.507432 C 2.673203 5.671488 2.872414 5.806248 3.112638 5.899995 C 3.352863 5.993741 3.680974 6.099205 4.096973 6.210529 C 4.647732 6.362866 5.098886 6.515204 5.444575 6.667541 C 5.790264 6.819879 6.08908 7.054245 6.335164 7.370638 C 6.575388 7.687031 6.69843 8.108889 6.69843 8.636212 C 6.69843 9.058069 6.587106 9.46235 6.3586 9.837335 C 6.130094 10.212319 5.796123 10.511135 5.362547 10.739642 C 4.923112 10.968148 4.413367 11.085331 3.821594 11.085331 Z M 18.58076 2.659892 L 15.821107 7.974129 L 15.821107 10.997444 L 14.455928 10.997444 L 14.455928 7.974129 L 11.678697 2.659892 L 13.202072 2.659892 L 15.135588 6.749569 L 17.069103 2.659892 Z M 30.591991 10.997444 L 29.220953 10.997444 L 25.107839 4.769181 L 25.107839 10.997444 L 23.736801 10.997444 L 23.736801 2.648173 L 25.107839 2.648173 L 29.220953 8.864718 L 29.220953 2.648173 L 30.591991 2.648173 Z M 41.859112 2.659892 L 41.859112 3.773128 L 39.638499 3.773128 L 39.638499 10.997444 L 38.27332 10.997444 L 38.27332 3.773128 L 36.040989 3.773128 L 36.040989 2.659892 Z M 52.346967 9.292435 L 48.854922 9.292435 L 48.25729 10.997444 L 46.82766 10.997444 L 49.81582 2.648173 L 51.397787 2.648173 L 54.385947 10.997444 L 52.944599 10.997444 Z M 51.960264 8.179199 L 50.606804 4.30045 L 49.241625 8.179199 Z M 63.590651 6.837456 L 66.186249 10.997444 L 64.645296 10.997444 L 62.764513 7.974129 L 61.000913 10.997444 L 59.477537 10.997444 L 62.067276 6.837456 L 59.465819 2.659892 L 61.000913 2.659892 L 62.893414 5.706643 L 64.668733 2.659892 L 66.197967 2.659892 Z M 63.590651 6.837456 " stroke="#800000" stroke-width="0.9" stroke-opacity="1" stroke-miterlimit="4"/><g fill="#ff3131" fill-opacity="1"><g transform="translate(697.781599, 432.150142)"><g><path d="M 2.4375 0.0625 C 2.0625 0.0625 1.722656 -0.00390625 1.421875 -0.140625 C 1.117188 -0.273438 0.882812 -0.460938 0.71875 -0.703125 C 0.550781 -0.941406 0.46875 -1.21875 0.46875 -1.53125 L 1.4375 -1.53125 C 1.457031 -1.289062 1.550781 -1.09375 1.71875 -0.9375 C 1.882812 -0.789062 2.125 -0.71875 2.4375 -0.71875 C 2.75 -0.71875 2.992188 -0.789062 3.171875 -0.9375 C 3.347656 -1.09375 3.4375 -1.289062 3.4375 -1.53125 C 3.4375 -1.71875 3.378906 -1.867188 3.265625 -1.984375 C 3.160156 -2.097656 3.023438 -2.1875 2.859375 -2.25 C 2.691406 -2.320312 2.46875 -2.394531 2.1875 -2.46875 C 1.820312 -2.5625 1.523438 -2.65625 1.296875 -2.75 C 1.066406 -2.851562 0.875 -3.007812 0.71875 -3.21875 C 0.5625 -3.425781 0.484375 -3.703125 0.484375 -4.046875 C 0.484375 -4.367188 0.5625 -4.648438 0.71875 -4.890625 C 0.875 -5.128906 1.097656 -5.3125 1.390625 -5.4375 C 1.679688 -5.5625 2.015625 -5.625 2.390625 -5.625 C 2.929688 -5.625 3.375 -5.488281 3.71875 -5.21875 C 4.0625 -4.957031 4.25 -4.59375 4.28125 -4.125 L 3.28125 -4.125 C 3.257812 -4.320312 3.160156 -4.492188 2.984375 -4.640625 C 2.816406 -4.785156 2.585938 -4.859375 2.296875 -4.859375 C 2.035156 -4.859375 1.820312 -4.789062 1.65625 -4.65625 C 1.488281 -4.519531 1.40625 -4.328125 1.40625 -4.078125 C 1.40625 -3.910156 1.457031 -3.769531 1.5625 -3.65625 C 1.664062 -3.550781 1.796875 -3.460938 1.953125 -3.390625 C 2.117188 -3.328125 2.335938 -3.257812 2.609375 -3.1875 C 2.984375 -3.09375 3.285156 -2.992188 3.515625 -2.890625 C 3.742188 -2.785156 3.941406 -2.628906 4.109375 -2.421875 C 4.273438 -2.210938 4.359375 -1.929688 4.359375 -1.578125 C 4.359375 -1.296875 4.28125 -1.03125 4.125 -0.78125 C 3.96875 -0.53125 3.742188 -0.328125 3.453125 -0.171875 C 3.171875 -0.015625 2.832031 0.0625 2.4375 0.0625 Z M 2.4375 0.0625 "/></g></g></g><g fill="#ff3131" fill-opacity="1"><g transform="translate(705.333937, 432.150142)"><g><path d="M 4.71875 -5.5625 L 2.875 -2.015625 L 2.875 0 L 1.96875 0 L 1.96875 -2.015625 L 0.125 -5.5625 L 1.140625 -5.5625 L 2.421875 -2.828125 L 3.71875 -5.5625 Z M 4.71875 -5.5625 "/></g></g></g><g fill="#ff3131" fill-opacity="1"><g transform="translate(712.894281, 432.150142)"><g><path d="M 5.171875 0 L 4.25 0 L 1.515625 -4.15625 L 1.515625 0 L 0.59375 0 L 0.59375 -5.5625 L 1.515625 -5.5625 L 4.25 -1.421875 L 4.25 -5.5625 L 5.171875 -5.5625 Z M 5.171875 0 "/></g></g></g><g fill="#ff3131" fill-opacity="1"><g transform="translate(721.38266, 432.150142)"><g><path d="M 4.1875 -5.5625 L 4.1875 -4.8125 L 2.71875 -4.8125 L 2.71875 0 L 1.796875 0 L 1.796875 -4.8125 L 0.3125 -4.8125 L 0.3125 -5.5625 Z M 4.1875 -5.5625 "/></g></g></g><g fill="#ff3131" fill-opacity="1"><g transform="translate(728.614989, 432.150142)"><g><path d="M 3.953125 -1.140625 L 1.625 -1.140625 L 1.21875 0 L 0.265625 0 L 2.265625 -5.5625 L 3.3125 -5.5625 L 5.3125 0 L 4.359375 0 Z M 3.703125 -1.875 L 2.796875 -4.46875 L 1.875 -1.875 Z M 3.703125 -1.875 "/></g></g></g><g fill="#ff3131" fill-opacity="1"><g transform="translate(736.911367, 432.150142)"><g><path d="M 3.15625 -2.78125 L 4.875 0 L 3.859375 0 L 2.59375 -2.015625 L 1.421875 0 L 0.40625 0 L 2.140625 -2.78125 L 0.40625 -5.5625 L 1.421875 -5.5625 L 2.6875 -3.53125 L 3.875 -5.5625 L 4.890625 -5.5625 Z M 3.15625 -2.78125 "/></g></g></g></svg>