<svg xmlns="http://www.w3.org/2000/svg" xmlns:xlink="http://www.w3.org/1999/xlink" width="500" zoomAndPan="magnify" viewBox="0 0 375 374.999991" height="500" preserveAspectRatio="xMidYMid meet" version="1.0"><defs><clipPath id="cf0a9703fd"><path d="M 22.421875 49 L 166 49 L 166 212 L 22.421875 212 Z M 22.421875 49 " clip-rule="nonzero"/></clipPath><clipPath id="03291d655b"><path d="M 209 119 L 352.421875 119 L 352.421875 282 L 209 282 Z M 209 119 " clip-rule="nonzero"/></clipPath></defs><g clip-path="url(#cf0a9703fd)"><path fill="#ff0000" d="M 22.421875 165.53125 L 165.027344 49.066406 L 165.027344 127.246094 L 106.0625 175.40625 L 86.644531 191.261719 C 81.363281 195.578125 78.332031 201.960938 78.332031 208.785156 C 78.332031 209.632812 78.378906 210.472656 78.472656 211.304688 Z M 22.421875 165.53125 " fill-opacity="1" fill-rule="nonzero"/></g><path fill="#ff914d" d="M 90.722656 221.308594 C 86.945312 218.226562 84.78125 213.660156 84.78125 208.78125 C 84.78125 203.90625 86.945312 199.339844 90.722656 196.257812 L 108.101562 182.066406 L 165.027344 228.558594 L 165.027344 281.996094 Z M 90.722656 221.308594 " fill-opacity="1" fill-rule="nonzero"/><g clip-path="url(#03291d655b)"><path fill="#8c52ff" d="M 209.980469 203.816406 L 268.945312 155.65625 L 288.363281 139.800781 C 293.648438 135.488281 296.675781 129.101562 296.675781 122.28125 C 296.675781 121.433594 296.628906 120.589844 296.539062 119.757812 L 352.585938 165.53125 L 209.980469 281.996094 Z M 209.980469 203.816406 " fill-opacity="1" fill-rule="nonzero"/></g><path fill="#38c5ca" d="M 209.980469 102.503906 L 209.980469 49.066406 L 284.285156 109.753906 C 288.0625 112.839844 290.230469 117.402344 290.230469 122.28125 C 290.230469 127.15625 288.0625 131.722656 284.285156 134.808594 L 266.90625 149 Z M 209.980469 102.503906 " fill-opacity="1" fill-rule="nonzero"/></svg>